<?xml version="1.0" encoding="UTF-8"?>
<!DOCTYPE svg PUBLIC "-//W3C//DTD SVG 1.1//EN" "http://www.w3.org/Graphics/SVG/1.1/DTD/svg11.dtd">
<svg xmlns="http://www.w3.org/2000/svg" version="1.1" width="606px" height="720px" style="shape-rendering:geometricPrecision; text-rendering:geometricPrecision; image-rendering:optimizeQuality; fill-rule:evenodd; clip-rule:evenodd" xmlns:xlink="http://www.w3.org/1999/xlink">
<g><path style="opacity:0.974" fill="#000000" d="M 208.5,-0.5 C 225.167,-0.5 241.833,-0.5 258.5,-0.5C 270.755,1.15293 283.088,3.15293 295.5,5.5C 307.132,8.9311 318.799,12.5978 330.5,16.5C 338.422,20.1496 346.422,23.8163 354.5,27.5C 362.353,32.3508 370.187,37.3508 378,42.5C 378.718,41.5494 379.551,41.3828 380.5,42C 379.939,43.5655 380.606,44.8989 382.5,46C 383.931,46.4652 385.097,47.2986 386,48.5C 386.718,47.5494 387.551,47.3828 388.5,48C 388.133,49.7566 388.966,51.2566 391,52.5C 391.718,51.5494 392.551,51.3828 393.5,52C 393.869,54.4684 395.369,56.635 398,58.5C 399.871,57.3322 401.371,57.8322 402.5,60C 402.167,60.3333 401.833,60.6667 401.5,61C 406.67,66.8782 412.17,71.7115 418,75.5C 418.617,76.4491 418.451,77.2825 417.5,78C 419.365,80.6309 421.532,82.1309 424,82.5C 424.617,83.4491 424.451,84.2825 423.5,85C 424.743,87.0338 426.243,87.8671 428,87.5C 428.617,88.4491 428.451,89.2825 427.5,90C 428.552,91.1192 429.719,91.6192 431,91.5C 431.617,92.4491 431.451,93.2825 430.5,94C 431.552,95.1192 432.719,95.6192 434,95.5C 441.298,106.548 447.465,117.215 452.5,127.5C 451.339,129.224 451.505,130.89 453,132.5C 453.333,131.833 453.667,131.167 454,130.5C 456.411,133.59 457.245,136.924 456.5,140.5C 457.236,142.541 458.069,144.541 459,146.5C 459.667,147.833 460.333,147.833 461,146.5C 462.659,149.43 462.992,152.43 462,155.5C 462.667,156.833 463.333,156.833 464,155.5C 464.496,157.035 464.33,158.535 463.5,160C 464,161.5 464.5,163 465,164.5C 465.333,163.5 465.667,162.5 466,161.5C 465.502,166.553 466.168,171.553 468,176.5C 468.333,175.167 468.667,173.833 469,172.5C 470.627,176.288 470.794,180.121 469.5,184C 470.897,192.301 472.231,200.468 473.5,208.5C 474.751,224.831 474.751,241.164 473.5,257.5C 472.523,260.287 472.19,263.287 472.5,266.5C 471.417,270.168 471.417,274.001 472.5,278C 472.259,281.062 471.592,283.895 470.5,286.5C 470.167,279.833 469.833,279.833 469.5,286.5C 468.549,287.919 468.216,289.585 468.5,291.5C 467.549,292.919 467.216,294.585 467.5,296.5C 466.566,297.568 466.232,298.901 466.5,300.5C 465.167,301.833 465.167,303.167 466.5,304.5C 466.435,307.428 465.768,310.095 464.5,312.5C 464.167,308.5 463.833,308.5 463.5,312.5C 462.566,313.568 462.232,314.901 462.5,316.5C 461.167,317.5 461.167,318.5 462.5,319.5C 462.382,322.688 461.549,325.688 460,328.5C 458.913,326.068 458.413,326.402 458.5,329.5C 457.596,330.209 457.263,331.209 457.5,332.5C 456.167,333.167 456.167,333.833 457.5,334.5C 457.072,337.785 456.072,340.785 454.5,343.5C 454.167,342.167 453.833,342.167 453.5,343.5C 452.662,343.842 452.328,344.508 452.5,345.5C 451.596,346.209 451.263,347.209 451.5,348.5C 450.167,349.167 450.167,349.833 451.5,350.5C 451.737,351.791 451.404,352.791 450.5,353.5C 450.167,350.833 449.833,350.833 449.5,353.5C 448.167,354.167 448.167,354.833 449.5,355.5C 445.81,366.545 440.81,376.878 434.5,386.5C 434.167,385.167 433.833,385.167 433.5,386.5C 432.167,387.167 432.167,387.833 433.5,388.5C 431.957,393.024 429.623,397.024 426.5,400.5C 426.167,399.167 425.833,399.167 425.5,400.5C 424.167,401.167 424.167,401.833 425.5,402.5C 423.281,407.709 420.281,412.376 416.5,416.5C 416.167,415.167 415.833,415.167 415.5,416.5C 414.167,417.167 414.167,417.833 415.5,418.5C 412.324,424.189 408.658,429.523 404.5,434.5C 404.167,433.167 403.833,433.167 403.5,434.5C 402.167,434.833 402.167,435.167 403.5,435.5C 403.573,437.027 402.906,438.027 401.5,438.5C 401.167,437.167 400.833,437.167 400.5,438.5C 399.167,438.833 399.167,439.167 400.5,439.5C 400.573,441.027 399.906,442.027 398.5,442.5C 398.167,441.167 397.833,441.167 397.5,442.5C 396.167,442.833 396.167,443.167 397.5,443.5C 397.573,445.027 396.906,446.027 395.5,446.5C 395.167,445.167 394.833,445.167 394.5,446.5C 393.833,446.5 393.5,446.833 393.5,447.5C 392.167,447.833 392.167,448.167 393.5,448.5C 393.573,450.027 392.906,451.027 391.5,451.5C 391.167,450.167 390.833,450.167 390.5,451.5C 389.167,451.833 389.167,452.167 390.5,452.5C 390.262,454.404 389.262,455.738 387.5,456.5C 387.167,455.167 386.833,455.167 386.5,456.5C 385.167,456.833 385.167,457.167 386.5,457.5C 385.92,459.749 384.587,461.415 382.5,462.5C 382.167,461.167 381.833,461.167 381.5,462.5C 380.833,462.5 380.5,462.833 380.5,463.5C 379.167,463.833 379.167,464.167 380.5,464.5C 380.262,466.404 379.262,467.738 377.5,468.5C 377.167,467.167 376.833,467.167 376.5,468.5C 375.833,468.5 375.5,468.833 375.5,469.5C 374.833,469.5 374.5,469.833 374.5,470.5C 373.833,470.5 373.5,470.833 373.5,471.5C 372.167,471.833 372.167,472.167 373.5,472.5C 373.262,474.404 372.262,475.738 370.5,476.5C 370.167,475.167 369.833,475.167 369.5,476.5C 368.833,476.5 368.5,476.833 368.5,477.5C 367.833,477.5 367.5,477.833 367.5,478.5C 366.833,478.5 366.5,478.833 366.5,479.5C 365.833,479.5 365.5,479.833 365.5,480.5C 364.833,480.5 364.5,480.833 364.5,481.5C 363.833,481.5 363.5,481.833 363.5,482.5C 362.833,482.5 362.5,482.833 362.5,483.5C 361.167,483.833 361.167,484.167 362.5,484.5C 361.243,487.427 359.243,489.761 356.5,491.5C 356.167,490.167 355.833,490.167 355.5,491.5C 354.833,491.5 354.5,491.833 354.5,492.5C 353.833,492.5 353.5,492.833 353.5,493.5C 352.833,493.5 352.5,493.833 352.5,494.5C 351.833,494.5 351.5,494.833 351.5,495.5C 350.833,495.5 350.5,495.833 350.5,496.5C 349.833,496.5 349.5,496.833 349.5,497.5C 348.833,497.5 348.5,497.833 348.5,498.5C 347.833,498.5 347.5,498.833 347.5,499.5C 346.833,499.5 346.5,499.833 346.5,500.5C 345.833,500.5 345.5,500.833 345.5,501.5C 344.833,501.5 344.5,501.833 344.5,502.5C 343.833,502.5 343.5,502.833 343.5,503.5C 342.833,503.5 342.5,503.833 342.5,504.5C 341.833,504.5 341.5,504.833 341.5,505.5C 340.833,505.5 340.5,505.833 340.5,506.5C 339.167,506.833 339.167,507.167 340.5,507.5C 339.415,509.587 337.749,510.92 335.5,511.5C 335.167,510.167 334.833,510.167 334.5,511.5C 333.833,511.5 333.5,511.833 333.5,512.5C 332.833,512.5 332.5,512.833 332.5,513.5C 331.833,513.5 331.5,513.833 331.5,514.5C 330.833,514.5 330.5,514.833 330.5,515.5C 329.833,515.5 329.5,515.833 329.5,516.5C 328.833,516.5 328.5,516.833 328.5,517.5C 327.833,517.5 327.5,517.833 327.5,518.5C 326.833,518.5 326.5,518.833 326.5,519.5C 325.508,519.328 324.842,519.662 324.5,520.5C 323.833,520.5 323.5,520.833 323.5,521.5C 322.833,521.5 322.5,521.833 322.5,522.5C 321.833,522.5 321.5,522.833 321.5,523.5C 320.833,523.5 320.5,523.833 320.5,524.5C 319.833,524.5 319.5,524.833 319.5,525.5C 318.833,525.5 318.5,525.833 318.5,526.5C 317.833,526.5 317.5,526.833 317.5,527.5C 316.508,527.328 315.842,527.662 315.5,528.5C 314.833,528.5 314.5,528.833 314.5,529.5C 313.833,529.5 313.5,529.833 313.5,530.5C 312.833,530.5 312.5,530.833 312.5,531.5C 311.833,531.5 311.5,531.833 311.5,532.5C 310.833,532.5 310.5,532.833 310.5,533.5C 309.508,533.328 308.842,533.662 308.5,534.5C 307.833,534.5 307.5,534.833 307.5,535.5C 306.833,535.5 306.5,535.833 306.5,536.5C 305.833,536.5 305.5,536.833 305.5,537.5C 304.167,537.833 304.167,538.167 305.5,538.5C 305.027,539.906 304.027,540.573 302.5,540.5C 302.167,539.167 301.833,539.167 301.5,540.5C 300.833,540.5 300.5,540.833 300.5,541.5C 299.833,541.5 299.5,541.833 299.5,542.5C 298.508,542.328 297.842,542.662 297.5,543.5C 296.833,543.5 296.5,543.833 296.5,544.5C 295.833,544.5 295.5,544.833 295.5,545.5C 294.833,545.5 294.5,545.833 294.5,546.5C 293.508,546.328 292.842,546.662 292.5,547.5C 291.833,547.5 291.5,547.833 291.5,548.5C 290.833,548.5 290.5,548.833 290.5,549.5C 289.833,549.5 289.5,549.833 289.5,550.5C 288.508,550.328 287.842,550.662 287.5,551.5C 286.833,551.5 286.5,551.833 286.5,552.5C 285.833,552.5 285.5,552.833 285.5,553.5C 284.833,553.5 284.5,553.833 284.5,554.5C 283.508,554.328 282.842,554.662 282.5,555.5C 281.833,555.5 281.5,555.833 281.5,556.5C 280.833,556.5 280.5,556.833 280.5,557.5C 279.508,557.328 278.842,557.662 278.5,558.5C 277.833,558.5 277.5,558.833 277.5,559.5C 276.833,559.5 276.5,559.833 276.5,560.5C 275.508,560.328 274.842,560.662 274.5,561.5C 273.833,561.5 273.5,561.833 273.5,562.5C 272.833,562.5 272.5,562.833 272.5,563.5C 271.508,563.328 270.842,563.662 270.5,564.5C 269.833,564.5 269.5,564.833 269.5,565.5C 268.833,565.5 268.5,565.833 268.5,566.5C 267.508,566.328 266.842,566.662 266.5,567.5C 265.833,567.5 265.5,567.833 265.5,568.5C 264.833,568.5 264.5,568.833 264.5,569.5C 263.508,569.328 262.842,569.662 262.5,570.5C 261.833,570.5 261.5,570.833 261.5,571.5C 260.833,571.5 260.5,571.833 260.5,572.5C 259.508,572.328 258.842,572.662 258.5,573.5C 257.833,573.5 257.5,573.833 257.5,574.5C 256.167,574.833 256.167,575.167 257.5,575.5C 257.027,576.906 256.027,577.573 254.5,577.5C 254.167,576.167 253.833,576.167 253.5,577.5C 252.508,577.328 251.842,577.662 251.5,578.5C 250.833,578.5 250.5,578.833 250.5,579.5C 249.167,579.833 249.167,580.167 250.5,580.5C 250.158,581.338 249.492,581.672 248.5,581.5C 248.167,580.167 247.833,580.167 247.5,581.5C 246.833,581.5 246.5,581.833 246.5,582.5C 245.508,582.328 244.842,582.662 244.5,583.5C 243.833,583.5 243.5,583.833 243.5,584.5C 242.508,584.328 241.842,584.662 241.5,585.5C 240.833,585.5 240.5,585.833 240.5,586.5C 239.833,586.5 239.5,586.833 239.5,587.5C 238.508,587.328 237.842,587.662 237.5,588.5C 236.833,588.5 236.5,588.833 236.5,589.5C 235.508,589.328 234.842,589.662 234.5,590.5C 233.833,590.5 233.5,590.833 233.5,591.5C 232.508,591.328 231.842,591.662 231.5,592.5C 230.833,592.5 230.5,592.833 230.5,593.5C 229.508,593.328 228.842,593.662 228.5,594.5C 227.833,594.5 227.5,594.833 227.5,595.5C 226.508,595.328 225.842,595.662 225.5,596.5C 224.833,596.5 224.5,596.833 224.5,597.5C 223.508,597.328 222.842,597.662 222.5,598.5C 221.833,598.5 221.5,598.833 221.5,599.5C 220.508,599.328 219.842,599.662 219.5,600.5C 218.833,600.5 218.5,600.833 218.5,601.5C 217.508,601.328 216.842,601.662 216.5,602.5C 215.833,602.5 215.5,602.833 215.5,603.5C 214.508,603.328 213.842,603.662 213.5,604.5C 212.833,604.5 212.5,604.833 212.5,605.5C 211.508,605.328 210.842,605.662 210.5,606.5C 209.833,606.5 209.5,606.833 209.5,607.5C 208.508,607.328 207.842,607.662 207.5,608.5C 206.833,608.5 206.5,608.833 206.5,609.5C 205.508,609.328 204.842,609.662 204.5,610.5C 203.833,610.5 203.5,610.833 203.5,611.5C 202.508,611.328 201.842,611.662 201.5,612.5C 200.508,612.328 199.842,612.662 199.5,613.5C 198.833,613.5 198.5,613.833 198.5,614.5C 197.508,614.328 196.842,614.662 196.5,615.5C 195.833,615.5 195.5,615.833 195.5,616.5C 194.508,616.328 193.842,616.662 193.5,617.5C 192.833,617.5 192.5,617.833 192.5,618.5C 191.508,618.328 190.842,618.662 190.5,619.5C 189.508,619.328 188.842,619.662 188.5,620.5C 187.833,620.5 187.5,620.833 187.5,621.5C 186.508,621.328 185.842,621.662 185.5,622.5C 184.833,622.5 184.5,622.833 184.5,623.5C 183.508,623.328 182.842,623.662 182.5,624.5C 181.508,624.328 180.842,624.662 180.5,625.5C 179.833,625.5 179.5,625.833 179.5,626.5C 178.508,626.328 177.842,626.662 177.5,627.5C 176.508,627.328 175.842,627.662 175.5,628.5C 174.833,628.5 174.5,628.833 174.5,629.5C 173.508,629.328 172.842,629.662 172.5,630.5C 171.833,630.5 171.5,630.833 171.5,631.5C 170.508,631.328 169.842,631.662 169.5,632.5C 168.508,632.328 167.842,632.662 167.5,633.5C 166.508,633.328 165.842,633.662 165.5,634.5C 164.833,634.5 164.5,634.833 164.5,635.5C 163.508,635.328 162.842,635.662 162.5,636.5C 161.508,636.328 160.842,636.662 160.5,637.5C 159.833,637.5 159.5,637.833 159.5,638.5C 158.508,638.328 157.842,638.662 157.5,639.5C 156.508,639.328 155.842,639.662 155.5,640.5C 154.833,640.5 154.5,640.833 154.5,641.5C 153.508,641.328 152.842,641.662 152.5,642.5C 151.508,642.328 150.842,642.662 150.5,643.5C 149.833,643.5 149.5,643.833 149.5,644.5C 148.508,644.328 147.842,644.662 147.5,645.5C 146.508,645.328 145.842,645.662 145.5,646.5C 144.833,646.5 144.5,646.833 144.5,647.5C 143.508,647.328 142.842,647.662 142.5,648.5C 141.508,648.328 140.842,648.662 140.5,649.5C 139.833,649.5 139.5,649.833 139.5,650.5C 138.508,650.328 137.842,650.662 137.5,651.5C 136.508,651.328 135.842,651.662 135.5,652.5C 134.833,652.5 134.5,652.833 134.5,653.5C 133.508,653.328 132.842,653.662 132.5,654.5C 131.508,654.328 130.842,654.662 130.5,655.5C 129.508,655.328 128.842,655.662 128.5,656.5C 127.833,656.5 127.5,656.833 127.5,657.5C 126.508,657.328 125.842,657.662 125.5,658.5C 124.508,658.328 123.842,658.662 123.5,659.5C 122.833,659.5 122.5,659.833 122.5,660.5C 121.508,660.328 120.842,660.662 120.5,661.5C 119.508,661.328 118.842,661.662 118.5,662.5C 117.833,662.5 117.5,662.833 117.5,663.5C 116.508,663.328 115.842,663.662 115.5,664.5C 114.508,664.328 113.842,664.662 113.5,665.5C 112.833,665.5 112.5,665.833 112.5,666.5C 111.508,666.328 110.842,666.662 110.5,667.5C 109.508,667.328 108.842,667.662 108.5,668.5C 107.833,668.5 107.5,668.833 107.5,669.5C 106.508,669.328 105.842,669.662 105.5,670.5C 104.508,670.328 103.842,670.662 103.5,671.5C 102.833,671.5 102.5,671.833 102.5,672.5C 101.508,672.328 100.842,672.662 100.5,673.5C 99.5084,673.328 98.8417,673.662 98.5,674.5C 97.8333,674.5 97.5,674.833 97.5,675.5C 96.5084,675.328 95.8417,675.662 95.5,676.5C 94.5084,676.328 93.8417,676.662 93.5,677.5C 92.5084,677.328 91.8417,677.662 91.5,678.5C 90.8333,678.5 90.5,678.833 90.5,679.5C 89.5084,679.328 88.8417,679.662 88.5,680.5C 87.5084,680.328 86.8417,680.662 86.5,681.5C 85.8333,681.5 85.5,681.833 85.5,682.5C 84.5084,682.328 83.8417,682.662 83.5,683.5C 82.5084,683.328 81.8417,683.662 81.5,684.5C 80.5084,684.328 79.8417,684.662 79.5,685.5C 78.8333,685.5 78.5,685.833 78.5,686.5C 77.5084,686.328 76.8417,686.662 76.5,687.5C 75.5084,687.328 74.8417,687.662 74.5,688.5C 73.5084,688.328 72.8417,688.662 72.5,689.5C 71.8333,689.5 71.5,689.833 71.5,690.5C 70.5084,690.328 69.8417,690.662 69.5,691.5C 68.5084,691.328 67.8417,691.662 67.5,692.5C 66.5084,692.328 65.8417,692.662 65.5,693.5C 64.5084,693.328 63.8417,693.662 63.5,694.5C 62.8333,694.5 62.5,694.833 62.5,695.5C 61.5084,695.328 60.8417,695.662 60.5,696.5C 59.5084,696.328 58.8417,696.662 58.5,697.5C 57.5084,697.328 56.8417,697.662 56.5,698.5C 55.5084,698.328 54.8417,698.662 54.5,699.5C 53.8333,699.5 53.5,699.833 53.5,700.5C 52.5084,700.328 51.8417,700.662 51.5,701.5C 50.5084,701.328 49.8417,701.662 49.5,702.5C 48.5084,702.328 47.8417,702.662 47.5,703.5C 46.5084,703.328 45.8417,703.662 45.5,704.5C 44.5084,704.328 43.8417,704.662 43.5,705.5C 42.5084,705.328 41.8417,705.662 41.5,706.5C 40.5084,706.328 39.8417,706.662 39.5,707.5C 38.5084,707.328 37.8417,707.662 37.5,708.5C 36.5084,708.328 35.8417,708.662 35.5,709.5C 34.5084,709.328 33.8417,709.662 33.5,710.5C 32.5084,710.328 31.8417,710.662 31.5,711.5C 30.5084,711.328 29.8417,711.662 29.5,712.5C 28.5084,712.328 27.8417,712.662 27.5,713.5C 26.209,713.263 25.209,713.596 24.5,714.5C 23.5084,714.328 22.8417,714.662 22.5,715.5C 21.209,715.263 20.209,715.596 19.5,716.5C 18.5084,716.328 17.8417,716.662 17.5,717.5C 16.209,717.263 15.209,717.596 14.5,718.5C 13.209,718.263 12.209,718.596 11.5,719.5C 7.83333,719.5 4.16667,719.5 0.5,719.5C 0.5,718.833 0.166667,718.5 -0.5,718.5C -0.5,715.167 -0.5,711.833 -0.5,708.5C 0.833333,708.167 0.833333,707.833 -0.5,707.5C -0.5,706.5 -0.5,705.5 -0.5,704.5C 0.396953,703.402 1.23029,703.402 2,704.5C 3.28374,703.428 3.61707,702.095 3,700.5C 3.66667,699.167 4.33333,699.167 5,700.5C 19.4082,686.418 35.2415,674.252 52.5,664C 54.1247,663.147 54.4581,662.147 53.5,661C 54.4491,660.383 55.2825,660.549 56,661.5C 84.2563,641.858 113.423,620.358 143.5,597C 145.977,595.295 147.311,593.295 147.5,591C 148.449,590.383 149.282,590.549 150,591.5C 151.397,589.93 152.897,588.596 154.5,587.5C 155.167,587.5 155.5,587.167 155.5,586.5C 157.191,585.136 158.858,583.803 160.5,582.5C 161.167,582.5 161.5,582.167 161.5,581.5C 163.525,579.804 165.525,578.137 167.5,576.5C 168.167,576.5 168.5,576.167 168.5,575.5C 171.721,573.505 173.721,571.005 174.5,568C 175.449,567.383 176.282,567.549 177,568.5C 191.479,555.037 206.312,540.537 221.5,525C 220.549,524.282 220.383,523.449 221,522.5C 224.823,520.741 228.323,517.908 231.5,514C 230.332,512.129 230.832,510.629 233,509.5C 233.333,509.833 233.667,510.167 234,510.5C 236.919,508.691 238.253,506.357 238,503.5C 240.119,503.493 241.953,502.326 243.5,500C 242.549,499.282 242.383,498.449 243,497.5C 243.667,496.167 244.333,496.167 245,497.5C 245.833,496.667 246.667,495.833 247.5,495C 246.549,494.282 246.383,493.449 247,492.5C 248.362,491.075 249.862,490.242 251.5,490C 250.549,489.282 250.383,488.449 251,487.5C 251.667,486.167 252.333,486.167 253,487.5C 254.284,486.428 254.617,485.095 254,483.5C 255.362,482.075 256.862,481.242 258.5,481C 257.549,480.282 257.383,479.449 258,478.5C 259.281,478.619 260.448,478.119 261.5,477C 261.077,474.624 261.911,472.457 264,470.5C 264.914,471.654 265.747,471.487 266.5,470C 266.043,469.586 265.709,469.086 265.5,468.5C 266.612,466.581 267.946,464.914 269.5,463.5C 269.833,464.833 270.167,464.833 270.5,463.5C 271.167,463.5 271.5,463.167 271.5,462.5C 271.936,459.853 273.102,457.186 275,454.5C 276,454.167 277,453.833 278,453.5C 278.492,452.451 278.326,451.451 277.5,450.5C 293.388,426.42 307.221,399.087 319,368.5C 320.131,369.604 320.965,369.271 321.5,367.5C 320.435,365.147 320.602,362.814 322,360.5C 322.667,361.833 323.333,361.833 324,360.5C 324.285,356.54 324.952,352.54 326,348.5C 326.667,344.5 327.333,344.5 328,348.5C 329.497,346.041 329.664,343.541 328.5,341C 328.667,340.5 328.833,340 329,339.5C 329.667,340.833 330.333,340.833 331,339.5C 342.311,302.074 348.478,261.074 349.5,216.5C 349.558,205.966 348.892,195.633 347.5,185.5C 347.155,176.07 345.988,166.736 344,157.5C 343.667,159.167 343.333,160.833 343,162.5C 341.501,158.19 341.334,153.857 342.5,149.5C 341.642,145.398 340.475,141.398 339,137.5C 338.667,138.167 338.333,138.833 338,139.5C 337.424,137.623 337.591,135.789 338.5,134C 338,132.5 337.5,131 337,129.5C 336.667,130.5 336.333,131.5 336,132.5C 335.845,130.144 335.845,127.811 336,125.5C 335.333,122.833 334.667,122.833 334,125.5C 333.405,124.101 333.572,122.768 334.5,121.5C 333.737,120.281 332.737,119.281 331.5,118.5C 332.594,115.636 332.094,112.969 330,110.5C 329.444,112.595 328.944,112.762 328.5,111C 329.802,109.077 329.635,107.243 328,105.5C 327.667,106.167 327.333,106.833 327,107.5C 322.262,96.3476 316.262,86.0142 309,76.5C 308.383,75.5509 308.549,74.7175 309.5,74C 307.862,73.758 306.362,72.9247 305,71.5C 305.623,69.0151 304.623,67.0151 302,65.5C 301.667,65.8333 301.333,66.1667 301,66.5C 295.928,61.9696 291.761,57.3029 288.5,52.5C 288.5,51.8333 288.167,51.5 287.5,51.5C 276.536,42.5146 264.203,35.848 250.5,31.5C 248.485,30.0762 246.152,29.4095 243.5,29.5C 236.462,27.1917 229.128,25.6917 221.5,25C 211.167,24.3333 200.833,24.3333 190.5,25C 187.635,25.1829 184.969,25.6829 182.5,26.5C 180.265,26.2053 178.265,26.5386 176.5,27.5C 174.265,27.2053 172.265,27.5386 170.5,28.5C 168.901,28.2322 167.568,28.5655 166.5,29.5C 164.901,29.2322 163.568,29.5655 162.5,30.5C 160.901,30.2322 159.568,30.5655 158.5,31.5C 156.901,31.2322 155.568,31.5655 154.5,32.5C 153.209,32.2627 152.209,32.596 151.5,33.5C 150.209,33.2627 149.209,33.596 148.5,34.5C 147.209,34.2627 146.209,34.596 145.5,35.5C 144.209,35.2627 143.209,35.596 142.5,36.5C 141.209,36.2627 140.209,36.596 139.5,37.5C 138.209,37.2627 137.209,37.596 136.5,38.5C 135.508,38.3284 134.842,38.6618 134.5,39.5C 133.209,39.2627 132.209,39.596 131.5,40.5C 130.508,40.3284 129.842,40.6618 129.5,41.5C 128.508,41.3284 127.842,41.6618 127.5,42.5C 126.209,42.2627 125.209,42.596 124.5,43.5C 123.508,43.3284 122.842,43.6618 122.5,44.5C 121.508,44.3284 120.842,44.6618 120.5,45.5C 119.508,45.3284 118.842,45.6618 118.5,46.5C 117.508,46.3284 116.842,46.6618 116.5,47.5C 115.508,47.3284 114.842,47.6618 114.5,48.5C 113.508,48.3284 112.842,48.6618 112.5,49.5C 111.833,49.5 111.5,49.8333 111.5,50.5C 110.508,50.3284 109.842,50.6618 109.5,51.5C 108.508,51.3284 107.842,51.6618 107.5,52.5C 106.508,52.3284 105.842,52.6618 105.5,53.5C 104.833,53.5 104.5,53.8333 104.5,54.5C 103.508,54.3284 102.842,54.6618 102.5,55.5C 101.833,55.5 101.5,55.8333 101.5,56.5C 100.508,56.3284 99.8417,56.6618 99.5,57.5C 98.8333,57.5 98.5,57.8333 98.5,58.5C 97.5084,58.3284 96.8417,58.6618 96.5,59.5C 95.8333,59.5 95.5,59.8333 95.5,60.5C 94.8333,60.5 94.5,60.8333 94.5,61.5C 93.5084,61.3284 92.8417,61.6618 92.5,62.5C 91.8333,62.5 91.5,62.8333 91.5,63.5C 90.8333,63.5 90.5,63.8333 90.5,64.5C 89.8333,64.5 89.5,64.8333 89.5,65.5C 88.1667,65.8333 88.1667,66.1667 89.5,66.5C 88.7377,68.2624 87.4044,69.2624 85.5,69.5C 85.1667,68.1667 84.8333,68.1667 84.5,69.5C 83.8333,69.5 83.5,69.8333 83.5,70.5C 82.8333,70.5 82.5,70.8333 82.5,71.5C 81.8333,71.5 81.5,71.8333 81.5,72.5C 80.8333,72.5 80.5,72.8333 80.5,73.5C 79.8333,73.5 79.5,73.8333 79.5,74.5C 78.8333,74.5 78.5,74.8333 78.5,75.5C 77.1667,75.8333 77.1667,76.1667 78.5,76.5C 78.573,78.0269 77.9063,79.0269 76.5,79.5C 76.1667,78.1667 75.8333,78.1667 75.5,79.5C 74.1667,79.8333 74.1667,80.1667 75.5,80.5C 73.7451,83.6803 71.7451,86.6803 69.5,89.5C 69.1667,88.1667 68.8333,88.1667 68.5,89.5C 67.1667,90.1667 67.1667,90.8333 68.5,91.5C 67.8333,92.5 67.1667,93.5 66.5,94.5C 65.1667,95.1667 65.1667,95.8333 66.5,96.5C 66.5432,100.893 66.0432,101.226 65,97.5C 64.5172,98.448 64.3505,99.448 64.5,100.5C 62.3004,105.73 62.3004,111.063 64.5,116.5C 65.4037,116.535 66.0704,117.035 66.5,118C 65.1393,120.264 65.306,122.43 67,124.5C 67.6667,125.833 68.3333,125.833 69,124.5C 70.6169,125.536 70.7836,126.703 69.5,128C 70.7893,129.802 72.4559,130.969 74.5,131.5C 76.4261,133.293 78.7594,134.293 81.5,134.5C 85.3188,135.166 89.3188,135.499 93.5,135.5C 100.065,135.639 106.399,134.972 112.5,133.5C 141.967,125.828 166.8,133.161 187,155.5C 187.333,155.167 187.667,154.833 188,154.5C 195.086,162.005 199.419,170.672 201,180.5C 201.556,178.405 202.056,178.238 202.5,180C 202.167,181 201.833,182 201.5,183C 205.088,195.567 206.421,208.4 205.5,221.5C 204.167,223.167 204.167,224.833 205.5,226.5C 205.477,228.927 204.977,231.26 204,233.5C 202.913,231.068 202.413,231.402 202.5,234.5C 201.167,235.167 201.167,235.833 202.5,236.5C 202.737,237.791 202.404,238.791 201.5,239.5C 201.167,236.833 200.833,236.833 200.5,239.5C 199.167,240.167 199.167,240.833 200.5,241.5C 199.172,246.165 196.839,250.165 193.5,253.5C 193.167,252.167 192.833,252.167 192.5,253.5C 191.167,253.833 191.167,254.167 192.5,254.5C 192.262,256.404 191.262,257.738 189.5,258.5C 189.167,257.167 188.833,257.167 188.5,258.5C 187.833,258.5 187.5,258.833 187.5,259.5C 186.833,259.5 186.5,259.833 186.5,260.5C 185.833,260.5 185.5,260.833 185.5,261.5C 184.833,261.5 184.5,261.833 184.5,262.5C 183.833,262.5 183.5,262.833 183.5,263.5C 182.833,263.5 182.5,263.833 182.5,264.5C 181.167,264.833 181.167,265.167 182.5,265.5C 182.027,266.906 181.027,267.573 179.5,267.5C 179.167,266.167 178.833,266.167 178.5,267.5C 177.833,267.5 177.5,267.833 177.5,268.5C 176.508,268.328 175.842,268.662 175.5,269.5C 174.833,269.5 174.5,269.833 174.5,270.5C 173.508,270.328 172.842,270.662 172.5,271.5C 171.833,271.5 171.5,271.833 171.5,272.5C 170.508,272.328 169.842,272.662 169.5,273.5C 168.508,273.328 167.842,273.662 167.5,274.5C 166.508,274.328 165.842,274.662 165.5,275.5C 164.508,275.328 163.842,275.662 163.5,276.5C 162.508,276.328 161.842,276.662 161.5,277.5C 160.508,277.328 159.842,277.662 159.5,278.5C 158.209,278.263 157.209,278.596 156.5,279.5C 155.209,279.263 154.209,279.596 153.5,280.5C 152.209,280.263 151.209,280.596 150.5,281.5C 149.209,281.263 148.209,281.596 147.5,282.5C 145.901,282.232 144.568,282.566 143.5,283.5C 105.776,289.558 72.4425,281.724 43.5,260C 39.656,255.61 35.656,252.11 31.5,249.5C 32.8549,248.325 32.6883,247.325 31,246.5C 30.6667,246.833 30.3333,247.167 30,247.5C 27.0646,244.997 25.8979,241.997 26.5,238.5C 25.9646,236.729 25.1313,236.396 24,237.5C 24.281,233.989 23.281,230.656 21,227.5C 20.6667,228.167 20.3333,228.833 20,229.5C 18.0412,226.472 17.5412,223.305 18.5,220C 18.0463,217.97 17.3796,216.137 16.5,214.5C 10.2053,181.741 11.872,152.241 21.5,126C 21.1667,125 20.8333,124 20.5,123C 25.5781,110.007 32.0781,97.8402 40,86.5C 40.6667,85.1667 41.3333,85.1667 42,86.5C 43.2837,85.4281 43.6171,84.0948 43,82.5C 44.7566,82.8671 46.2566,82.0338 47.5,80C 46.5494,79.2825 46.3828,78.4491 47,77.5C 49.4684,77.1309 51.635,75.6309 53.5,73C 52.3322,71.1291 52.8322,69.6291 55,68.5C 55.3333,68.8333 55.6667,69.1667 56,69.5C 59.7288,65.6019 63.5621,61.9352 67.5,58.5C 68.1667,58.5 68.5,58.1667 68.5,57.5C 69.1667,57.5 69.5,57.1667 69.5,56.5C 109.953,23.4486 156.287,4.44859 208.5,-0.5 Z M 243.5,29.5 C 246.152,29.4095 248.485,30.0762 250.5,31.5C 247.848,31.5905 245.515,30.9238 243.5,29.5 Z M 64.5,100.5 C 64.5,105.833 64.5,111.167 64.5,116.5C 62.3004,111.063 62.3004,105.73 64.5,100.5 Z"/></g>
<g><path style="opacity:0.01" fill="#000000" d="M 166.5,5.5 C 167.601,4.40168 168.934,4.23502 170.5,5C 169.207,5.49001 167.873,5.65668 166.5,5.5 Z"/></g>
<g><path style="opacity:0.01" fill="#000000" d="M 295.5,5.5 C 296.601,4.40168 297.934,4.23502 299.5,5C 298.207,5.49001 296.873,5.65668 295.5,5.5 Z"/></g>
<g><path style="opacity:0.009" fill="#000000" d="M 300.5,6.5 C 301.251,5.42654 302.251,5.25988 303.5,6C 302.552,6.48278 301.552,6.64945 300.5,6.5 Z"/></g>
<g><path style="opacity:0.012" fill="#000000" d="M 330.5,16.5 C 330.897,15.475 331.563,15.3083 332.5,16C 331.906,16.4643 331.239,16.631 330.5,16.5 Z"/></g>
<g><path style="opacity:0.01" fill="#000000" d="M 333.5,17.5 C 333.897,16.475 334.563,16.3083 335.5,17C 334.906,17.4643 334.239,17.631 333.5,17.5 Z"/></g>
<g><path style="opacity:0.009" fill="#000000" d="M 182.5,27.5 C 182.5,27.1667 182.5,26.8333 182.5,26.5C 193.167,26.8333 193.167,27.1667 182.5,27.5 Z"/></g>
<g><path style="opacity:0.012" fill="#000000" d="M 354.5,26.5 C 355.833,27.1667 355.833,27.1667 354.5,26.5 Z"/></g>
<g><path style="opacity:0.01" fill="#000000" d="M 176.5,28.5 C 176.5,28.1667 176.5,27.8333 176.5,27.5C 178.5,27.5 180.5,27.5 182.5,27.5C 180.735,28.4614 178.735,28.7947 176.5,28.5 Z"/></g>
<g><path style="opacity:0.008" fill="#000000" d="M 170.5,29.5 C 170.5,29.1667 170.5,28.8333 170.5,28.5C 172.5,28.5 174.5,28.5 176.5,28.5C 174.735,29.4614 172.735,29.7947 170.5,29.5 Z"/></g>
<g><path style="opacity:0.01" fill="#000000" d="M 166.5,30.5 C 166.5,30.1667 166.5,29.8333 166.5,29.5C 167.833,29.5 169.167,29.5 170.5,29.5C 169.432,30.4345 168.099,30.7678 166.5,30.5 Z"/></g>
<g><path style="opacity:0.01" fill="#000000" d="M 162.5,31.5 C 162.5,31.1667 162.5,30.8333 162.5,30.5C 163.833,30.5 165.167,30.5 166.5,30.5C 165.432,31.4345 164.099,31.7678 162.5,31.5 Z"/></g>
<g><path style="opacity:0.01" fill="#000000" d="M 158.5,32.5 C 158.5,32.1667 158.5,31.8333 158.5,31.5C 159.833,31.5 161.167,31.5 162.5,31.5C 161.432,32.4345 160.099,32.7678 158.5,32.5 Z"/></g>
<g><path style="opacity:0.008" fill="#000000" d="M 154.5,33.5 C 154.5,33.1667 154.5,32.8333 154.5,32.5C 155.833,32.5 157.167,32.5 158.5,32.5C 157.432,33.4345 156.099,33.7678 154.5,33.5 Z"/></g>
<g><path style="opacity:0.012" fill="#000000" d="M 250.5,33.5 C 250.897,32.475 251.563,32.3083 252.5,33C 251.906,33.4643 251.239,33.631 250.5,33.5 Z"/></g>
<g><path style="opacity:0.009" fill="#000000" d="M 151.5,34.5 C 151.5,34.1667 151.5,33.8333 151.5,33.5C 152.5,33.5 153.5,33.5 154.5,33.5C 153.791,34.404 152.791,34.7373 151.5,34.5 Z"/></g>
<g><path style="opacity:0.009" fill="#000000" d="M 148.5,35.5 C 148.5,35.1667 148.5,34.8333 148.5,34.5C 149.5,34.5 150.5,34.5 151.5,34.5C 150.791,35.404 149.791,35.7373 148.5,35.5 Z"/></g>
<g><path style="opacity:0.01" fill="#000000" d="M 145.5,36.5 C 145.5,36.1667 145.5,35.8333 145.5,35.5C 146.5,35.5 147.5,35.5 148.5,35.5C 147.791,36.404 146.791,36.7373 145.5,36.5 Z"/></g>
<g><path style="opacity:0.009" fill="#000000" d="M 142.5,37.5 C 142.5,37.1667 142.5,36.8333 142.5,36.5C 143.5,36.5 144.5,36.5 145.5,36.5C 144.791,37.404 143.791,37.7373 142.5,37.5 Z"/></g>
<g><path style="opacity:0.009" fill="#000000" d="M 139.5,38.5 C 139.5,38.1667 139.5,37.8333 139.5,37.5C 140.5,37.5 141.5,37.5 142.5,37.5C 141.791,38.404 140.791,38.7373 139.5,38.5 Z"/></g>
<g><path style="opacity:0.008" fill="#000000" d="M 136.5,39.5 C 136.5,39.1667 136.5,38.8333 136.5,38.5C 137.5,38.5 138.5,38.5 139.5,38.5C 138.791,39.404 137.791,39.7373 136.5,39.5 Z"/></g>
<g><path style="opacity:0.01" fill="#000000" d="M 134.5,40.5 C 134.5,40.1667 134.5,39.8333 134.5,39.5C 135.167,39.5 135.833,39.5 136.5,39.5C 136.158,40.3382 135.492,40.6716 134.5,40.5 Z"/></g>
<g><path style="opacity:0.008" fill="#000000" d="M 131.5,41.5 C 131.5,41.1667 131.5,40.8333 131.5,40.5C 132.5,40.5 133.5,40.5 134.5,40.5C 133.791,41.404 132.791,41.7373 131.5,41.5 Z"/></g>
<g><path style="opacity:0.01" fill="#000000" d="M 129.5,42.5 C 129.5,42.1667 129.5,41.8333 129.5,41.5C 130.167,41.5 130.833,41.5 131.5,41.5C 131.158,42.3382 130.492,42.6716 129.5,42.5 Z"/></g>
<g><path style="opacity:0.01" fill="#000000" d="M 127.5,43.5 C 127.5,43.1667 127.5,42.8333 127.5,42.5C 128.167,42.5 128.833,42.5 129.5,42.5C 129.158,43.3382 128.492,43.6716 127.5,43.5 Z"/></g>
<g><path style="opacity:0.007" fill="#000000" d="M 124.5,44.5 C 124.5,44.1667 124.5,43.8333 124.5,43.5C 125.5,43.5 126.5,43.5 127.5,43.5C 126.791,44.404 125.791,44.7373 124.5,44.5 Z"/></g>
<g><path style="opacity:0.01" fill="#000000" d="M 122.5,45.5 C 122.5,45.1667 122.5,44.8333 122.5,44.5C 123.167,44.5 123.833,44.5 124.5,44.5C 124.158,45.3382 123.492,45.6716 122.5,45.5 Z"/></g>
<g><path style="opacity:0.008" fill="#000000" d="M 120.5,46.5 C 120.5,46.1667 120.5,45.8333 120.5,45.5C 121.167,45.5 121.833,45.5 122.5,45.5C 122.158,46.3382 121.492,46.6716 120.5,46.5 Z"/></g>
<g><path style="opacity:0.01" fill="#000000" d="M 118.5,47.5 C 118.5,47.1667 118.5,46.8333 118.5,46.5C 119.167,46.5 119.833,46.5 120.5,46.5C 120.158,47.3382 119.492,47.6716 118.5,47.5 Z"/></g>
<g><path style="opacity:0.01" fill="#000000" d="M 116.5,48.5 C 116.5,48.1667 116.5,47.8333 116.5,47.5C 117.167,47.5 117.833,47.5 118.5,47.5C 118.158,48.3382 117.492,48.6716 116.5,48.5 Z"/></g>
<g><path style="opacity:0.01" fill="#000000" d="M 114.5,49.5 C 114.5,49.1667 114.5,48.8333 114.5,48.5C 115.167,48.5 115.833,48.5 116.5,48.5C 116.158,49.3382 115.492,49.6716 114.5,49.5 Z"/></g>
<g><path style="opacity:0.008" fill="#000000" d="M 112.5,50.5 C 112.5,50.1667 112.5,49.8333 112.5,49.5C 113.167,49.5 113.833,49.5 114.5,49.5C 114.158,50.3382 113.492,50.6716 112.5,50.5 Z"/></g>
<g><path style="opacity:0.012" fill="#000000" d="M 111.5,50.5 C 111.833,50.5 112.167,50.5 112.5,50.5C 112.315,51.1701 111.981,51.1701 111.5,50.5 Z"/></g>
<g><path style="opacity:0.016" fill="#000000" d="M 109.5,51.5 C 110.833,52.1667 110.833,52.1667 109.5,51.5 Z"/></g>
<g><path style="opacity:0.009" fill="#000000" d="M 287.5,51.5 C 288.167,51.5 288.5,51.8333 288.5,52.5C 287.503,53.7125 286.503,53.5458 285.5,52C 286.094,51.5357 286.761,51.369 287.5,51.5 Z"/></g>
<g><path style="opacity:0.01" fill="#000000" d="M 107.5,53.5 C 107.5,53.1667 107.5,52.8333 107.5,52.5C 108.167,52.5 108.833,52.5 109.5,52.5C 109.158,53.3382 108.492,53.6716 107.5,53.5 Z"/></g>
<g><path style="opacity:0.006" fill="#000000" d="M 105.5,54.5 C 105.5,54.1667 105.5,53.8333 105.5,53.5C 106.167,53.5 106.833,53.5 107.5,53.5C 107.158,54.3382 106.492,54.6716 105.5,54.5 Z"/></g>
<g><path style="opacity:0.016" fill="#000000" d="M 104.5,54.5 C 104.833,54.5 105.167,54.5 105.5,54.5C 105.315,55.1701 104.981,55.1701 104.5,54.5 Z"/></g>
<g><path style="opacity:0.008" fill="#000000" d="M 69.5,56.5 C 68.8333,56.5 68.5,56.8333 68.5,57.5C 67.8333,57.5 67.5,57.8333 67.5,58.5C 65.4076,57.7145 65.7409,56.7145 68.5,55.5C 69.1067,55.6236 69.44,55.9569 69.5,56.5 Z"/></g>
<g><path style="opacity:0.008" fill="#000000" d="M 102.5,56.5 C 102.5,56.1667 102.5,55.8333 102.5,55.5C 103.167,55.5 103.833,55.5 104.5,55.5C 104.158,56.3382 103.492,56.6716 102.5,56.5 Z"/></g>
<g><path style="opacity:0.012" fill="#000000" d="M 101.5,56.5 C 101.833,56.5 102.167,56.5 102.5,56.5C 102.315,57.1701 101.981,57.1701 101.5,56.5 Z"/></g>
<g><path style="opacity:0.008" fill="#000000" d="M 99.5,58.5 C 99.5,58.1667 99.5,57.8333 99.5,57.5C 100.167,57.5 100.833,57.5 101.5,57.5C 101.158,58.3382 100.492,58.6716 99.5,58.5 Z"/></g>
<g><path style="opacity:0.016" fill="#000000" d="M 98.5,58.5 C 98.8333,58.5 99.1667,58.5 99.5,58.5C 99.3147,59.1701 98.9813,59.1701 98.5,58.5 Z"/></g>
<g><path style="opacity:0.008" fill="#000000" d="M 96.5,60.5 C 96.5,60.1667 96.5,59.8333 96.5,59.5C 97.1667,59.5 97.8333,59.5 98.5,59.5C 98.1583,60.3382 97.4916,60.6716 96.5,60.5 Z"/></g>
<g><path style="opacity:0.016" fill="#000000" d="M 95.5,60.5 C 95.8333,60.5 96.1667,60.5 96.5,60.5C 96.3147,61.1701 95.9813,61.1701 95.5,60.5 Z"/></g>
<g><path style="opacity:0.012" fill="#000000" d="M 94.5,61.5 C 94.8333,61.5 95.1667,61.5 95.5,61.5C 95.3147,62.1701 94.9813,62.1701 94.5,61.5 Z"/></g>
<g><path style="opacity:0.006" fill="#000000" d="M 92.5,63.5 C 92.5,63.1667 92.5,62.8333 92.5,62.5C 93.1667,62.5 93.8333,62.5 94.5,62.5C 94.1583,63.3382 93.4916,63.6716 92.5,63.5 Z"/></g>
<g><path style="opacity:0.016" fill="#000000" d="M 91.5,63.5 C 91.8333,63.5 92.1667,63.5 92.5,63.5C 92.3147,64.1701 91.9813,64.1701 91.5,63.5 Z"/></g>
<g><path style="opacity:0.016" fill="#000000" d="M 90.5,64.5 C 90.8333,64.5 91.1667,64.5 91.5,64.5C 91.3147,65.1701 90.9813,65.1701 90.5,64.5 Z"/></g>
<g><path style="opacity:0.012" fill="#000000" d="M 89.5,65.5 C 89.8333,65.5 90.1667,65.5 90.5,65.5C 90.3147,66.1701 89.9813,66.1701 89.5,65.5 Z"/></g>
<g><path style="opacity:0.016" fill="#000000" d="M 84.5,69.5 C 84.8333,69.5 85.1667,69.5 85.5,69.5C 85.3147,70.1701 84.9813,70.1701 84.5,69.5 Z"/></g>
<g><path style="opacity:0.02" fill="#000000" d="M 83.5,70.5 C 83.8333,70.5 84.1667,70.5 84.5,70.5C 84.3147,71.1701 83.9813,71.1701 83.5,70.5 Z"/></g>
<g><path style="opacity:0.963" fill="#000000" d="M 604.5,104.5 C 604.232,106.099 604.566,107.432 605.5,108.5C 605.5,115.5 605.5,122.5 605.5,129.5C 604.167,130.833 604.167,132.167 605.5,133.5C 605.5,134.5 605.5,135.5 605.5,136.5C 603.329,140.844 600.663,144.844 597.5,148.5C 597.167,147.167 596.833,147.167 596.5,148.5C 595.167,148.833 595.167,149.167 596.5,149.5C 594.833,153.167 592.167,155.833 588.5,157.5C 588.167,156.167 587.833,156.167 587.5,157.5C 586.833,157.5 586.5,157.833 586.5,158.5C 585.508,158.328 584.842,158.662 584.5,159.5C 583.833,159.5 583.5,159.833 583.5,160.5C 582.508,160.328 581.842,160.662 581.5,161.5C 580.508,161.328 579.842,161.662 579.5,162.5C 578.508,162.328 577.842,162.662 577.5,163.5C 576.508,163.328 575.842,163.662 575.5,164.5C 574.209,164.263 573.209,164.596 572.5,165.5C 571.209,165.263 570.209,165.596 569.5,166.5C 567.585,166.216 565.919,166.549 564.5,167.5C 558.143,167.524 551.81,167.19 545.5,166.5C 537.786,163.808 530.786,159.808 524.5,154.5C 524.5,153.833 524.167,153.5 523.5,153.5C 523.5,152.833 523.167,152.5 522.5,152.5C 522.5,151.833 522.167,151.5 521.5,151.5C 520.108,149.076 518.275,147.743 516,147.5C 514.483,144.657 512.983,141.823 511.5,139C 511.735,138.127 512.069,137.293 512.5,136.5C 508.516,124.68 508.516,112.846 512.5,101C 512.095,96.6096 513.595,92.7763 517,89.5C 518.364,90.2583 519.531,89.7583 520.5,88C 519.332,86.1291 519.832,84.6291 522,83.5C 522.333,83.8333 522.667,84.1667 523,84.5C 524.119,83.4479 524.619,82.2812 524.5,81C 525.449,80.3828 526.282,80.5494 527,81.5C 541,69.9383 557.5,67.4383 576.5,74C 583.84,78.4527 590.673,82.9527 597,87.5C 597.617,88.4491 597.451,89.2825 596.5,90C 597.552,91.1192 598.719,91.6192 600,91.5C 601.495,93.1096 601.661,94.7763 600.5,96.5C 601.879,99.2585 603.213,101.925 604.5,104.5 Z"/></g>
<g><path style="opacity:0.016" fill="#000000" d="M 82.5,71.5 C 82.8333,71.5 83.1667,71.5 83.5,71.5C 83.3147,72.1701 82.9813,72.1701 82.5,71.5 Z"/></g>
<g><path style="opacity:0.016" fill="#000000" d="M 81.5,72.5 C 81.8333,72.5 82.1667,72.5 82.5,72.5C 82.3147,73.1701 81.9813,73.1701 81.5,72.5 Z"/></g>
<g><path style="opacity:0.02" fill="#000000" d="M 80.5,73.5 C 80.8333,73.5 81.1667,73.5 81.5,73.5C 81.3147,74.1701 80.9813,74.1701 80.5,73.5 Z"/></g>
<g><path style="opacity:0.016" fill="#000000" d="M 79.5,74.5 C 79.8333,74.5 80.1667,74.5 80.5,74.5C 80.3147,75.1701 79.9813,75.1701 79.5,74.5 Z"/></g>
<g><path style="opacity:0.016" fill="#000000" d="M 78.5,75.5 C 78.8333,75.5 79.1667,75.5 79.5,75.5C 79.3147,76.1701 78.9813,76.1701 78.5,75.5 Z"/></g>
<g><path style="opacity:0.012" fill="#000000" d="M 75.5,79.5 C 75.8333,79.5 76.1667,79.5 76.5,79.5C 76.3147,80.1701 75.9813,80.1701 75.5,79.5 Z"/></g>
<g><path style="opacity:0.01" fill="#000000" d="M 68.5,89.5 C 68.8333,89.5 69.1667,89.5 69.5,89.5C 69.6716,90.4916 69.3382,91.1583 68.5,91.5C 68.5,90.8333 68.5,90.1667 68.5,89.5 Z"/></g>
<g><path style="opacity:0.012" fill="#000000" d="M 66.5,94.5 C 67.8333,95.1667 67.8333,95.8333 66.5,96.5C 66.5,95.8333 66.5,95.1667 66.5,94.5 Z"/></g>
<g><path style="opacity:0.01" fill="#000000" d="M 605.5,101.5 C 605.5,102.5 605.5,103.5 605.5,104.5C 605.167,104.5 604.833,104.5 604.5,104.5C 604.263,103.209 604.596,102.209 605.5,101.5 Z"/></g>
<g><path style="opacity:0.016" fill="#000000" d="M 74.5,130.5 C 75.8333,131.167 75.8333,131.167 74.5,130.5 Z"/></g>
<g><path style="opacity:0.01" fill="#000000" d="M 112.5,132.5 C 114.628,131.371 116.961,131.204 119.5,132C 117.19,132.497 114.857,132.663 112.5,132.5 Z"/></g>
<g><path style="opacity:0.011" fill="#000000" d="M 112.5,132.5 C 112.5,132.833 112.5,133.167 112.5,133.5C 103.167,133.167 103.167,132.833 112.5,132.5 Z"/></g>
<g><path style="opacity:0.008" fill="#000000" d="M 81.5,134.5 C 88.9887,133.344 96.6554,133.178 104.5,134C 96.8406,134.5 89.1739,134.666 81.5,134.5 Z"/></g>
<g><path style="opacity:0.012" fill="#000000" d="M 596.5,148.5 C 596.833,148.5 597.167,148.5 597.5,148.5C 597.315,149.17 596.981,149.17 596.5,148.5 Z"/></g>
<g><path style="opacity:0.009" fill="#000000" d="M 521.5,151.5 C 522.167,151.5 522.5,151.833 522.5,152.5C 523.167,152.5 523.5,152.833 523.5,153.5C 524.167,153.5 524.5,153.833 524.5,154.5C 522.732,155.507 521.399,154.841 520.5,152.5C 520.624,151.893 520.957,151.56 521.5,151.5 Z"/></g>
<g><path style="opacity:0.016" fill="#000000" d="M 587.5,157.5 C 587.833,157.5 588.167,157.5 588.5,157.5C 588.315,158.17 587.981,158.17 587.5,157.5 Z"/></g>
<g><path style="opacity:0.012" fill="#000000" d="M 586.5,158.5 C 586.833,158.5 587.167,158.5 587.5,158.5C 587.315,159.17 586.981,159.17 586.5,158.5 Z"/></g>
<g><path style="opacity:0.006" fill="#000000" d="M 584.5,160.5 C 584.5,160.167 584.5,159.833 584.5,159.5C 585.167,159.5 585.833,159.5 586.5,159.5C 586.158,160.338 585.492,160.672 584.5,160.5 Z"/></g>
<g><path style="opacity:0.012" fill="#000000" d="M 583.5,160.5 C 583.833,160.5 584.167,160.5 584.5,160.5C 584.315,161.17 583.981,161.17 583.5,160.5 Z"/></g>
<g><path style="opacity:0.008" fill="#000000" d="M 581.5,162.5 C 581.5,162.167 581.5,161.833 581.5,161.5C 582.167,161.5 582.833,161.5 583.5,161.5C 583.158,162.338 582.492,162.672 581.5,162.5 Z"/></g>
<g><path style="opacity:0.006" fill="#000000" d="M 579.5,163.5 C 579.5,163.167 579.5,162.833 579.5,162.5C 580.167,162.5 580.833,162.5 581.5,162.5C 581.158,163.338 580.492,163.672 579.5,163.5 Z"/></g>
<g><path style="opacity:0.008" fill="#000000" d="M 577.5,164.5 C 577.5,164.167 577.5,163.833 577.5,163.5C 578.167,163.5 578.833,163.5 579.5,163.5C 579.158,164.338 578.492,164.672 577.5,164.5 Z"/></g>
<g><path style="opacity:0.008" fill="#000000" d="M 575.5,165.5 C 575.5,165.167 575.5,164.833 575.5,164.5C 576.167,164.5 576.833,164.5 577.5,164.5C 577.158,165.338 576.492,165.672 575.5,165.5 Z"/></g>
<g><path style="opacity:0.009" fill="#000000" d="M 572.5,166.5 C 572.5,166.167 572.5,165.833 572.5,165.5C 573.5,165.5 574.5,165.5 575.5,165.5C 574.791,166.404 573.791,166.737 572.5,166.5 Z"/></g>
<g><path style="opacity:0.012" fill="#000000" d="M 545.5,166.5 C 545.5,166.833 545.5,167.167 545.5,167.5C 541.5,167.167 541.5,166.833 545.5,166.5 Z"/></g>
<g><path style="opacity:0.01" fill="#000000" d="M 569.5,167.5 C 569.5,167.167 569.5,166.833 569.5,166.5C 570.5,166.5 571.5,166.5 572.5,166.5C 571.791,167.404 570.791,167.737 569.5,167.5 Z"/></g>
<g><path style="opacity:0.01" fill="#000000" d="M 545.5,167.5 C 547.199,167.34 548.866,167.506 550.5,168C 548.613,168.78 546.946,168.613 545.5,167.5 Z"/></g>
<g><path style="opacity:0.009" fill="#000000" d="M 564.5,168.5 C 564.5,168.167 564.5,167.833 564.5,167.5C 566.167,167.5 567.833,167.5 569.5,167.5C 568.081,168.451 566.415,168.784 564.5,168.5 Z"/></g>
<g><path style="opacity:0.009" fill="#000000" d="M 564.5,168.5 C 560.354,169.647 556.02,169.814 551.5,169C 555.821,168.501 560.154,168.334 564.5,168.5 Z"/></g>
<g><path style="opacity:0.01" fill="#000000" d="M 347.5,185.5 C 347.666,189.846 347.499,194.179 347,198.5C 346.186,193.98 346.353,189.646 347.5,185.5 Z"/></g>
<g><path style="opacity:0.011" fill="#000000" d="M 206.5,221.5 C 206.334,213.493 206.5,205.493 207,197.5C 207.823,205.677 207.656,213.677 206.5,221.5 Z"/></g>
<g><path style="opacity:0.01" fill="#000000" d="M 474.5,208.5 C 474.167,208.5 473.833,208.5 473.5,208.5C 473.833,196.5 474.167,196.5 474.5,208.5 Z"/></g>
<g><path style="opacity:0.01" fill="#000000" d="M 474.5,208.5 C 475.652,213.985 475.818,219.651 475,225.5C 474.501,219.843 474.334,214.176 474.5,208.5 Z"/></g>
<g><path style="opacity:0.01" fill="#000000" d="M 16.5,214.5 C 16.6495,215.552 16.4828,216.552 16,217.5C 15.2599,216.251 15.4265,215.251 16.5,214.5 Z"/></g>
<g><path style="opacity:0.009" fill="#000000" d="M 205.5,221.5 C 205.833,221.5 206.167,221.5 206.5,221.5C 206.784,223.415 206.451,225.081 205.5,226.5C 205.5,224.833 205.5,223.167 205.5,221.5 Z"/></g>
<g><path style="opacity:0.004" fill="#000000" d="M 475.5,228.5 C 476.634,230.966 476.801,233.633 476,236.5C 475.503,233.854 475.336,231.187 475.5,228.5 Z"/></g>
<g><path style="opacity:0.012" fill="#000000" d="M 202.5,234.5 C 203.833,235.167 203.833,235.833 202.5,236.5C 202.5,235.833 202.5,235.167 202.5,234.5 Z"/></g>
<g><path style="opacity:0.012" fill="#000000" d="M 200.5,239.5 C 200.833,239.5 201.167,239.5 201.5,239.5C 201.672,240.492 201.338,241.158 200.5,241.5C 200.5,240.833 200.5,240.167 200.5,239.5 Z"/></g>
<g><path style="opacity:0.01" fill="#000000" d="M 474.5,257.5 C 474.334,251.491 474.501,245.491 475,239.5C 475.819,245.681 475.653,251.681 474.5,257.5 Z"/></g>
<g><path style="opacity:0.016" fill="#000000" d="M 192.5,253.5 C 192.833,253.5 193.167,253.5 193.5,253.5C 193.315,254.17 192.981,254.17 192.5,253.5 Z"/></g>
<g><path style="opacity:0.01" fill="#000000" d="M 473.5,257.5 C 473.833,257.5 474.167,257.5 474.5,257.5C 474.81,260.713 474.477,263.713 473.5,266.5C 473.5,263.5 473.5,260.5 473.5,257.5 Z"/></g>
<g><path style="opacity:0.012" fill="#000000" d="M 188.5,258.5 C 188.833,258.5 189.167,258.5 189.5,258.5C 189.315,259.17 188.981,259.17 188.5,258.5 Z"/></g>
<g><path style="opacity:0.012" fill="#000000" d="M 187.5,259.5 C 187.833,259.5 188.167,259.5 188.5,259.5C 188.315,260.17 187.981,260.17 187.5,259.5 Z"/></g>
<g><path style="opacity:0.016" fill="#000000" d="M 186.5,260.5 C 186.833,260.5 187.167,260.5 187.5,260.5C 187.315,261.17 186.981,261.17 186.5,260.5 Z"/></g>
<g><path style="opacity:0.016" fill="#000000" d="M 185.5,261.5 C 185.833,261.5 186.167,261.5 186.5,261.5C 186.315,262.17 185.981,262.17 185.5,261.5 Z"/></g>
<g><path style="opacity:0.016" fill="#000000" d="M 184.5,262.5 C 184.833,262.5 185.167,262.5 185.5,262.5C 185.315,263.17 184.981,263.17 184.5,262.5 Z"/></g>
<g><path style="opacity:0.012" fill="#000000" d="M 183.5,263.5 C 183.833,263.5 184.167,263.5 184.5,263.5C 184.315,264.17 183.981,264.17 183.5,263.5 Z"/></g>
<g><path style="opacity:0.012" fill="#000000" d="M 182.5,264.5 C 182.833,264.5 183.167,264.5 183.5,264.5C 183.315,265.17 182.981,265.17 182.5,264.5 Z"/></g>
<g><path style="opacity:0.01" fill="#000000" d="M 472.5,266.5 C 472.833,266.5 473.167,266.5 473.5,266.5C 473.167,275.833 472.833,275.833 472.5,266.5 Z"/></g>
<g><path style="opacity:0.016" fill="#000000" d="M 178.5,267.5 C 178.833,267.5 179.167,267.5 179.5,267.5C 179.315,268.17 178.981,268.17 178.5,267.5 Z"/></g>
<g><path style="opacity:0.011" fill="#000000" d="M 550.5,268.5 C 554.981,267.352 559.648,267.185 564.5,268C 559.845,268.499 555.179,268.666 550.5,268.5 Z"/></g>
<g><path style="opacity:0.012" fill="#000000" d="M 177.5,268.5 C 177.833,268.5 178.167,268.5 178.5,268.5C 178.315,269.17 177.981,269.17 177.5,268.5 Z"/></g>
<g><path style="opacity:0.011" fill="#000000" d="M 565.5,269.5 C 566.601,268.402 567.934,268.235 569.5,269C 568.207,269.49 566.873,269.657 565.5,269.5 Z"/></g>
<g><path style="opacity:0.008" fill="#000000" d="M 175.5,270.5 C 175.5,270.167 175.5,269.833 175.5,269.5C 176.167,269.5 176.833,269.5 177.5,269.5C 177.158,270.338 176.492,270.672 175.5,270.5 Z"/></g>
<g><path style="opacity:0.964" fill="#000000" d="M 604.5,303.5 C 604.232,305.099 604.566,306.432 605.5,307.5C 605.5,314.5 605.5,321.5 605.5,328.5C 604.167,329.833 604.167,331.167 605.5,332.5C 605.5,333.5 605.5,334.5 605.5,335.5C 603.329,339.844 600.663,343.844 597.5,347.5C 597.167,346.167 596.833,346.167 596.5,347.5C 595.167,347.833 595.167,348.167 596.5,348.5C 596.262,350.404 595.262,351.738 593.5,352.5C 593.167,351.167 592.833,351.167 592.5,352.5C 591.833,352.5 591.5,352.833 591.5,353.5C 590.833,353.5 590.5,353.833 590.5,354.5C 589.508,354.328 588.842,354.662 588.5,355.5C 587.833,355.5 587.5,355.833 587.5,356.5C 586.833,356.5 586.5,356.833 586.5,357.5C 585.833,357.5 585.5,357.833 585.5,358.5C 584.508,358.328 583.842,358.662 583.5,359.5C 582.508,359.328 581.842,359.662 581.5,360.5C 580.833,360.5 580.5,360.833 580.5,361.5C 575.459,363.336 570.459,365.003 565.5,366.5C 554.193,367.67 543.526,365.67 533.5,360.5C 529.211,356.625 524.711,353.625 520,351.5C 519.383,350.551 519.549,349.718 520.5,349C 516.221,347.003 513.221,343.337 511.5,338C 511.735,337.127 512.069,336.293 512.5,335.5C 508.5,323.833 508.5,312.167 512.5,300.5C 511.238,298.425 511.405,296.425 513,294.5C 514,294.167 515,293.833 516,293.5C 516,292.167 516,290.833 516,289.5C 518.275,289.257 520.108,287.924 521.5,285.5C 522.167,285.5 522.5,285.167 522.5,284.5C 523.167,284.5 523.5,284.167 523.5,283.5C 524.167,283.5 524.5,283.167 524.5,282.5C 525.167,282.5 525.5,282.167 525.5,281.5C 542.446,268.192 560.779,266.025 580.5,275C 585.631,279.233 590.798,282.733 596,285.5C 596.617,286.449 596.451,287.282 595.5,288C 599.082,289.743 601.748,292.91 603.5,297.5C 602.566,299.702 602.9,301.702 604.5,303.5 Z"/></g>
<g><path style="opacity:0.012" fill="#000000" d="M 174.5,270.5 C 174.833,270.5 175.167,270.5 175.5,270.5C 175.315,271.17 174.981,271.17 174.5,270.5 Z"/></g>
<g><path style="opacity:0.008" fill="#000000" d="M 172.5,272.5 C 172.5,272.167 172.5,271.833 172.5,271.5C 173.167,271.5 173.833,271.5 174.5,271.5C 174.158,272.338 173.492,272.672 172.5,272.5 Z"/></g>
<g><path style="opacity:0.012" fill="#000000" d="M 171.5,272.5 C 171.833,272.5 172.167,272.5 172.5,272.5C 172.315,273.17 171.981,273.17 171.5,272.5 Z"/></g>
<g><path style="opacity:0.01" fill="#000000" d="M 169.5,274.5 C 169.5,274.167 169.5,273.833 169.5,273.5C 170.167,273.5 170.833,273.5 171.5,273.5C 171.158,274.338 170.492,274.672 169.5,274.5 Z"/></g>
<g><path style="opacity:0.01" fill="#000000" d="M 167.5,275.5 C 167.5,275.167 167.5,274.833 167.5,274.5C 168.167,274.5 168.833,274.5 169.5,274.5C 169.158,275.338 168.492,275.672 167.5,275.5 Z"/></g>
<g><path style="opacity:0.01" fill="#000000" d="M 165.5,276.5 C 165.5,276.167 165.5,275.833 165.5,275.5C 166.167,275.5 166.833,275.5 167.5,275.5C 167.158,276.338 166.492,276.672 165.5,276.5 Z"/></g>
<g><path style="opacity:0.008" fill="#000000" d="M 163.5,277.5 C 163.5,277.167 163.5,276.833 163.5,276.5C 164.167,276.5 164.833,276.5 165.5,276.5C 165.158,277.338 164.492,277.672 163.5,277.5 Z"/></g>
<g><path style="opacity:0.01" fill="#000000" d="M 161.5,278.5 C 161.5,278.167 161.5,277.833 161.5,277.5C 162.167,277.5 162.833,277.5 163.5,277.5C 163.158,278.338 162.492,278.672 161.5,278.5 Z"/></g>
<g><path style="opacity:0.008" fill="#000000" d="M 159.5,279.5 C 159.5,279.167 159.5,278.833 159.5,278.5C 160.167,278.5 160.833,278.5 161.5,278.5C 161.158,279.338 160.492,279.672 159.5,279.5 Z"/></g>
<g><path style="opacity:0.008" fill="#000000" d="M 156.5,280.5 C 156.5,280.167 156.5,279.833 156.5,279.5C 157.5,279.5 158.5,279.5 159.5,279.5C 158.791,280.404 157.791,280.737 156.5,280.5 Z"/></g>
<g><path style="opacity:0.009" fill="#000000" d="M 153.5,281.5 C 153.5,281.167 153.5,280.833 153.5,280.5C 154.5,280.5 155.5,280.5 156.5,280.5C 155.791,281.404 154.791,281.737 153.5,281.5 Z"/></g>
<g><path style="opacity:0.007" fill="#000000" d="M 525.5,281.5 C 524.833,281.5 524.5,281.833 524.5,282.5C 523.833,282.5 523.5,282.833 523.5,283.5C 522.833,283.5 522.5,283.833 522.5,284.5C 521.833,284.5 521.5,284.833 521.5,285.5C 520.882,283.336 521.882,281.67 524.5,280.5C 525.107,280.624 525.44,280.957 525.5,281.5 Z"/></g>
<g><path style="opacity:0.009" fill="#000000" d="M 150.5,282.5 C 150.5,282.167 150.5,281.833 150.5,281.5C 151.5,281.5 152.5,281.5 153.5,281.5C 152.791,282.404 151.791,282.737 150.5,282.5 Z"/></g>
<g><path style="opacity:0.01" fill="#000000" d="M 147.5,283.5 C 147.5,283.167 147.5,282.833 147.5,282.5C 148.5,282.5 149.5,282.5 150.5,282.5C 149.791,283.404 148.791,283.737 147.5,283.5 Z"/></g>
<g><path style="opacity:0.01" fill="#000000" d="M 143.5,283.5 C 144.833,283.5 146.167,283.5 147.5,283.5C 146.167,284.833 144.833,284.833 143.5,283.5 Z"/></g>
<g><path style="opacity:0.01" fill="#000000" d="M 93.5,285.5 C 94.9464,284.387 96.6131,284.22 98.5,285C 96.8659,285.494 95.1992,285.66 93.5,285.5 Z"/></g>
<g><path style="opacity:0.009" fill="#000000" d="M 469.5,286.5 C 469.833,286.5 470.167,286.5 470.5,286.5C 470.784,288.415 470.451,290.081 469.5,291.5C 469.5,289.833 469.5,288.167 469.5,286.5 Z"/></g>
<g><path style="opacity:0.009" fill="#000000" d="M 468.5,291.5 C 468.833,291.5 469.167,291.5 469.5,291.5C 469.784,293.415 469.451,295.081 468.5,296.5C 468.5,294.833 468.5,293.167 468.5,291.5 Z"/></g>
<g><path style="opacity:0.01" fill="#000000" d="M 467.5,296.5 C 467.833,296.5 468.167,296.5 468.5,296.5C 468.768,298.099 468.434,299.432 467.5,300.5C 467.5,299.167 467.5,297.833 467.5,296.5 Z"/></g>
<g><path style="opacity:0.01" fill="#000000" d="M 466.5,300.5 C 466.833,300.5 467.167,300.5 467.5,300.5C 467.768,302.099 467.434,303.432 466.5,304.5C 466.5,303.167 466.5,301.833 466.5,300.5 Z"/></g>
<g><path style="opacity:0.01" fill="#000000" d="M 605.5,300.5 C 605.5,301.5 605.5,302.5 605.5,303.5C 605.167,303.5 604.833,303.5 604.5,303.5C 604.263,302.209 604.596,301.209 605.5,300.5 Z"/></g>
<g><path style="opacity:0.008" fill="#000000" d="M 463.5,312.5 C 463.833,312.5 464.167,312.5 464.5,312.5C 464.768,314.099 464.434,315.432 463.5,316.5C 463.5,315.167 463.5,313.833 463.5,312.5 Z"/></g>
<g><path style="opacity:0.012" fill="#000000" d="M 462.5,316.5 C 462.833,316.5 463.167,316.5 463.5,316.5C 463.737,317.791 463.404,318.791 462.5,319.5C 462.5,318.5 462.5,317.5 462.5,316.5 Z"/></g>
<g><path style="opacity:0.01" fill="#000000" d="M 458.5,329.5 C 459.833,330.5 459.833,331.5 458.5,332.5C 458.5,331.5 458.5,330.5 458.5,329.5 Z"/></g>
<g><path style="opacity:0.014" fill="#000000" d="M 457.5,332.5 C 457.833,332.5 458.167,332.5 458.5,332.5C 458.672,333.492 458.338,334.158 457.5,334.5C 457.5,333.833 457.5,333.167 457.5,332.5 Z"/></g>
<g><path style="opacity:0.01" fill="#000000" d="M 453.5,343.5 C 453.833,343.5 454.167,343.5 454.5,343.5C 454.672,344.492 454.338,345.158 453.5,345.5C 453.5,344.833 453.5,344.167 453.5,343.5 Z"/></g>
<g><path style="opacity:0.009" fill="#000000" d="M 452.5,345.5 C 452.833,345.5 453.167,345.5 453.5,345.5C 453.737,346.791 453.404,347.791 452.5,348.5C 452.5,347.5 452.5,346.5 452.5,345.5 Z"/></g>
<g><path style="opacity:0.016" fill="#000000" d="M 596.5,347.5 C 596.833,347.5 597.167,347.5 597.5,347.5C 597.315,348.17 596.981,348.17 596.5,347.5 Z"/></g>
<g><path style="opacity:0.012" fill="#000000" d="M 451.5,348.5 C 451.833,348.5 452.167,348.5 452.5,348.5C 452.672,349.492 452.338,350.158 451.5,350.5C 451.5,349.833 451.5,349.167 451.5,348.5 Z"/></g>
<g><path style="opacity:0.008" fill="#000000" d="M 592.5,352.5 C 592.833,352.5 593.167,352.5 593.5,352.5C 593.315,353.17 592.981,353.17 592.5,352.5 Z"/></g>
<g><path style="opacity:0.012" fill="#000000" d="M 449.5,353.5 C 449.833,353.5 450.167,353.5 450.5,353.5C 450.672,354.492 450.338,355.158 449.5,355.5C 449.5,354.833 449.5,354.167 449.5,353.5 Z"/></g>
<g><path style="opacity:0.008" fill="#000000" d="M 591.5,353.5 C 591.833,353.5 592.167,353.5 592.5,353.5C 592.315,354.17 591.981,354.17 591.5,353.5 Z"/></g>
<g><path style="opacity:0.008" fill="#000000" d="M 590.5,354.5 C 590.833,354.5 591.167,354.5 591.5,354.5C 591.315,355.17 590.981,355.17 590.5,354.5 Z"/></g>
<g><path style="opacity:0.007" fill="#000000" d="M 588.5,355.5 C 589.167,355.5 589.833,355.5 590.5,355.5C 590.027,356.906 589.027,357.573 587.5,357.5C 587.5,357.167 587.5,356.833 587.5,356.5C 588.167,356.5 588.5,356.167 588.5,355.5 Z"/></g>
<g><path style="opacity:0.016" fill="#000000" d="M 586.5,357.5 C 586.833,357.5 587.167,357.5 587.5,357.5C 587.315,358.17 586.981,358.17 586.5,357.5 Z"/></g>
<g><path style="opacity:0.008" fill="#000000" d="M 585.5,358.5 C 585.833,358.5 586.167,358.5 586.5,358.5C 586.315,359.17 585.981,359.17 585.5,358.5 Z"/></g>
<g><path style="opacity:0.01" fill="#000000" d="M 583.5,360.5 C 583.5,360.167 583.5,359.833 583.5,359.5C 584.167,359.5 584.833,359.5 585.5,359.5C 585.158,360.338 584.492,360.672 583.5,360.5 Z"/></g>
<g><path style="opacity:0.006" fill="#000000" d="M 533.5,360.5 C 533.5,360.833 533.5,361.167 533.5,361.5C 530.833,361.167 530.833,360.833 533.5,360.5 Z"/></g>
<g><path style="opacity:0.006" fill="#000000" d="M 581.5,361.5 C 581.5,361.167 581.5,360.833 581.5,360.5C 582.167,360.5 582.833,360.5 583.5,360.5C 583.158,361.338 582.492,361.672 581.5,361.5 Z"/></g>
<g><path style="opacity:0.012" fill="#000000" d="M 533.5,361.5 C 534.833,362.167 534.833,362.167 533.5,361.5 Z"/></g>
<g><path style="opacity:0.012" fill="#000000" d="M 580.5,361.5 C 580.833,361.5 581.167,361.5 581.5,361.5C 581.315,362.17 580.981,362.17 580.5,361.5 Z"/></g>
<g><path style="opacity:0.01" fill="#000000" d="M 570.5,366.5 C 571.251,365.427 572.251,365.26 573.5,366C 572.552,366.483 571.552,366.649 570.5,366.5 Z"/></g>
<g><path style="opacity:0.011" fill="#000000" d="M 565.5,367.5 C 565.5,367.167 565.5,366.833 565.5,366.5C 570.833,366.833 570.833,367.167 565.5,367.5 Z"/></g>
<g><path style="opacity:0.011" fill="#000000" d="M 565.5,367.5 C 560.35,368.651 555.016,368.817 549.5,368C 554.823,367.501 560.156,367.334 565.5,367.5 Z"/></g>
<g><path style="opacity:0.012" fill="#000000" d="M 433.5,386.5 C 433.833,386.5 434.167,386.5 434.5,386.5C 434.672,387.492 434.338,388.158 433.5,388.5C 433.5,387.833 433.5,387.167 433.5,386.5 Z"/></g>
<g><path style="opacity:0.012" fill="#000000" d="M 425.5,400.5 C 425.833,400.5 426.167,400.5 426.5,400.5C 426.672,401.492 426.338,402.158 425.5,402.5C 425.5,401.833 425.5,401.167 425.5,400.5 Z"/></g>
<g><path style="opacity:0.01" fill="#000000" d="M 415.5,416.5 C 415.833,416.5 416.167,416.5 416.5,416.5C 416.672,417.492 416.338,418.158 415.5,418.5C 415.5,417.833 415.5,417.167 415.5,416.5 Z"/></g>
<g><path style="opacity:0.012" fill="#000000" d="M 403.5,434.5 C 403.833,434.5 404.167,434.5 404.5,434.5C 404.315,435.17 403.981,435.17 403.5,434.5 Z"/></g>
<g><path style="opacity:0.016" fill="#000000" d="M 400.5,438.5 C 400.833,438.5 401.167,438.5 401.5,438.5C 401.315,439.17 400.981,439.17 400.5,438.5 Z"/></g>
<g><path style="opacity:0.012" fill="#000000" d="M 397.5,442.5 C 397.833,442.5 398.167,442.5 398.5,442.5C 398.315,443.17 397.981,443.17 397.5,442.5 Z"/></g>
<g><path style="opacity:0.012" fill="#000000" d="M 394.5,446.5 C 394.833,446.5 395.167,446.5 395.5,446.5C 395.315,447.17 394.981,447.17 394.5,446.5 Z"/></g>
<g><path style="opacity:0.016" fill="#000000" d="M 393.5,447.5 C 393.833,447.5 394.167,447.5 394.5,447.5C 394.315,448.17 393.981,448.17 393.5,447.5 Z"/></g>
<g><path style="opacity:0.016" fill="#000000" d="M 390.5,451.5 C 390.833,451.5 391.167,451.5 391.5,451.5C 391.315,452.17 390.981,452.17 390.5,451.5 Z"/></g>
<g><path style="opacity:0.016" fill="#000000" d="M 386.5,456.5 C 386.833,456.5 387.167,456.5 387.5,456.5C 387.315,457.17 386.981,457.17 386.5,456.5 Z"/></g>
<g><path style="opacity:0.009" fill="#000000" d="M 271.5,462.5 C 270.833,462.5 270.5,462.833 270.5,463.5C 270.167,463.5 269.833,463.5 269.5,463.5C 270.032,460.54 270.699,460.207 271.5,462.5 Z"/></g>
<g><path style="opacity:0.016" fill="#000000" d="M 381.5,462.5 C 381.833,462.5 382.167,462.5 382.5,462.5C 382.315,463.17 381.981,463.17 381.5,462.5 Z"/></g>
<g><path style="opacity:0.016" fill="#000000" d="M 380.5,463.5 C 380.833,463.5 381.167,463.5 381.5,463.5C 381.315,464.17 380.981,464.17 380.5,463.5 Z"/></g>
<g><path style="opacity:0.012" fill="#000000" d="M 376.5,468.5 C 376.833,468.5 377.167,468.5 377.5,468.5C 377.315,469.17 376.981,469.17 376.5,468.5 Z"/></g>
<g><path style="opacity:0.016" fill="#000000" d="M 375.5,469.5 C 375.833,469.5 376.167,469.5 376.5,469.5C 376.315,470.17 375.981,470.17 375.5,469.5 Z"/></g>
<g><path style="opacity:0.016" fill="#000000" d="M 374.5,470.5 C 374.833,470.5 375.167,470.5 375.5,470.5C 375.315,471.17 374.981,471.17 374.5,470.5 Z"/></g>
<g><path style="opacity:0.016" fill="#000000" d="M 373.5,471.5 C 373.833,471.5 374.167,471.5 374.5,471.5C 374.315,472.17 373.981,472.17 373.5,471.5 Z"/></g>
<g><path style="opacity:0.012" fill="#000000" d="M 369.5,476.5 C 369.833,476.5 370.167,476.5 370.5,476.5C 370.315,477.17 369.981,477.17 369.5,476.5 Z"/></g>
<g><path style="opacity:0.012" fill="#000000" d="M 368.5,477.5 C 368.833,477.5 369.167,477.5 369.5,477.5C 369.315,478.17 368.981,478.17 368.5,477.5 Z"/></g>
<g><path style="opacity:0.016" fill="#000000" d="M 367.5,478.5 C 367.833,478.5 368.167,478.5 368.5,478.5C 368.315,479.17 367.981,479.17 367.5,478.5 Z"/></g>
<g><path style="opacity:0.016" fill="#000000" d="M 366.5,479.5 C 366.833,479.5 367.167,479.5 367.5,479.5C 367.315,480.17 366.981,480.17 366.5,479.5 Z"/></g>
<g><path style="opacity:0.016" fill="#000000" d="M 365.5,480.5 C 365.833,480.5 366.167,480.5 366.5,480.5C 366.315,481.17 365.981,481.17 365.5,480.5 Z"/></g>
<g><path style="opacity:0.02" fill="#000000" d="M 364.5,481.5 C 364.833,481.5 365.167,481.5 365.5,481.5C 365.315,482.17 364.981,482.17 364.5,481.5 Z"/></g>
<g><path style="opacity:0.016" fill="#000000" d="M 363.5,482.5 C 363.833,482.5 364.167,482.5 364.5,482.5C 364.315,483.17 363.981,483.17 363.5,482.5 Z"/></g>
<g><path style="opacity:0.016" fill="#000000" d="M 362.5,483.5 C 362.833,483.5 363.167,483.5 363.5,483.5C 363.315,484.17 362.981,484.17 362.5,483.5 Z"/></g>
<g><path style="opacity:0.008" fill="#000000" d="M 355.5,491.5 C 355.833,491.5 356.167,491.5 356.5,491.5C 356.315,492.17 355.981,492.17 355.5,491.5 Z"/></g>
<g><path style="opacity:0.008" fill="#000000" d="M 354.5,492.5 C 354.833,492.5 355.167,492.5 355.5,492.5C 355.315,493.17 354.981,493.17 354.5,492.5 Z"/></g>
<g><path style="opacity:0.008" fill="#000000" d="M 353.5,493.5 C 353.833,493.5 354.167,493.5 354.5,493.5C 354.315,494.17 353.981,494.17 353.5,493.5 Z"/></g>
<g><path style="opacity:0.008" fill="#000000" d="M 352.5,494.5 C 352.833,494.5 353.167,494.5 353.5,494.5C 353.315,495.17 352.981,495.17 352.5,494.5 Z"/></g>
<g><path style="opacity:0.012" fill="#000000" d="M 351.5,495.5 C 351.833,495.5 352.167,495.5 352.5,495.5C 352.315,496.17 351.981,496.17 351.5,495.5 Z"/></g>
<g><path style="opacity:0.008" fill="#000000" d="M 350.5,496.5 C 350.833,496.5 351.167,496.5 351.5,496.5C 351.315,497.17 350.981,497.17 350.5,496.5 Z"/></g>
<g><path style="opacity:0.012" fill="#000000" d="M 349.5,497.5 C 349.833,497.5 350.167,497.5 350.5,497.5C 350.315,498.17 349.981,498.17 349.5,497.5 Z"/></g>
<g><path style="opacity:0.012" fill="#000000" d="M 348.5,498.5 C 348.833,498.5 349.167,498.5 349.5,498.5C 349.315,499.17 348.981,499.17 348.5,498.5 Z"/></g>
<g><path style="opacity:0.012" fill="#000000" d="M 347.5,499.5 C 347.833,499.5 348.167,499.5 348.5,499.5C 348.315,500.17 347.981,500.17 347.5,499.5 Z"/></g>
<g><path style="opacity:0.008" fill="#000000" d="M 346.5,500.5 C 346.833,500.5 347.167,500.5 347.5,500.5C 347.315,501.17 346.981,501.17 346.5,500.5 Z"/></g>
<g><path style="opacity:0.008" fill="#000000" d="M 345.5,501.5 C 345.833,501.5 346.167,501.5 346.5,501.5C 346.315,502.17 345.981,502.17 345.5,501.5 Z"/></g>
<g><path style="opacity:0.012" fill="#000000" d="M 344.5,502.5 C 344.833,502.5 345.167,502.5 345.5,502.5C 345.315,503.17 344.981,503.17 344.5,502.5 Z"/></g>
<g><path style="opacity:0.008" fill="#000000" d="M 343.5,503.5 C 343.833,503.5 344.167,503.5 344.5,503.5C 344.315,504.17 343.981,504.17 343.5,503.5 Z"/></g>
<g><path style="opacity:0.008" fill="#000000" d="M 342.5,504.5 C 342.833,504.5 343.167,504.5 343.5,504.5C 343.315,505.17 342.981,505.17 342.5,504.5 Z"/></g>
<g><path style="opacity:0.008" fill="#000000" d="M 341.5,505.5 C 341.833,505.5 342.167,505.5 342.5,505.5C 342.315,506.17 341.981,506.17 341.5,505.5 Z"/></g>
<g><path style="opacity:0.004" fill="#000000" d="M 340.5,506.5 C 340.833,506.5 341.167,506.5 341.5,506.5C 341.315,507.17 340.981,507.17 340.5,506.5 Z"/></g>
<g><path style="opacity:0.016" fill="#000000" d="M 334.5,511.5 C 334.833,511.5 335.167,511.5 335.5,511.5C 335.315,512.17 334.981,512.17 334.5,511.5 Z"/></g>
<g><path style="opacity:0.016" fill="#000000" d="M 333.5,512.5 C 333.833,512.5 334.167,512.5 334.5,512.5C 334.315,513.17 333.981,513.17 333.5,512.5 Z"/></g>
<g><path style="opacity:0.016" fill="#000000" d="M 332.5,513.5 C 332.833,513.5 333.167,513.5 333.5,513.5C 333.315,514.17 332.981,514.17 332.5,513.5 Z"/></g>
<g><path style="opacity:0.016" fill="#000000" d="M 331.5,514.5 C 331.833,514.5 332.167,514.5 332.5,514.5C 332.315,515.17 331.981,515.17 331.5,514.5 Z"/></g>
<g><path style="opacity:0.016" fill="#000000" d="M 330.5,515.5 C 330.833,515.5 331.167,515.5 331.5,515.5C 331.315,516.17 330.981,516.17 330.5,515.5 Z"/></g>
<g><path style="opacity:0.016" fill="#000000" d="M 329.5,516.5 C 329.833,516.5 330.167,516.5 330.5,516.5C 330.315,517.17 329.981,517.17 329.5,516.5 Z"/></g>
<g><path style="opacity:0.012" fill="#000000" d="M 328.5,517.5 C 328.833,517.5 329.167,517.5 329.5,517.5C 329.315,518.17 328.981,518.17 328.5,517.5 Z"/></g>
<g><path style="opacity:0.012" fill="#000000" d="M 327.5,518.5 C 327.833,518.5 328.167,518.5 328.5,518.5C 328.315,519.17 327.981,519.17 327.5,518.5 Z"/></g>
<g><path style="opacity:0.008" fill="#000000" d="M 326.5,519.5 C 326.833,519.5 327.167,519.5 327.5,519.5C 327.315,520.17 326.981,520.17 326.5,519.5 Z"/></g>
<g><path style="opacity:0.007" fill="#000000" d="M 324.5,520.5 C 325.167,520.5 325.833,520.5 326.5,520.5C 326.027,521.906 325.027,522.573 323.5,522.5C 323.5,522.167 323.5,521.833 323.5,521.5C 324.167,521.5 324.5,521.167 324.5,520.5 Z"/></g>
<g><path style="opacity:0.012" fill="#000000" d="M 322.5,522.5 C 322.833,522.5 323.167,522.5 323.5,522.5C 323.315,523.17 322.981,523.17 322.5,522.5 Z"/></g>
<g><path style="opacity:0.016" fill="#000000" d="M 321.5,523.5 C 321.833,523.5 322.167,523.5 322.5,523.5C 322.315,524.17 321.981,524.17 321.5,523.5 Z"/></g>
<g><path style="opacity:0.016" fill="#000000" d="M 320.5,524.5 C 320.833,524.5 321.167,524.5 321.5,524.5C 321.315,525.17 320.981,525.17 320.5,524.5 Z"/></g>
<g><path style="opacity:0.012" fill="#000000" d="M 319.5,525.5 C 319.833,525.5 320.167,525.5 320.5,525.5C 320.315,526.17 319.981,526.17 319.5,525.5 Z"/></g>
<g><path style="opacity:0.008" fill="#000000" d="M 318.5,526.5 C 318.833,526.5 319.167,526.5 319.5,526.5C 319.315,527.17 318.981,527.17 318.5,526.5 Z"/></g>
<g><path style="opacity:0.008" fill="#000000" d="M 317.5,527.5 C 317.833,527.5 318.167,527.5 318.5,527.5C 318.315,528.17 317.981,528.17 317.5,527.5 Z"/></g>
<g><path style="opacity:0.008" fill="#000000" d="M 315.5,529.5 C 315.5,529.167 315.5,528.833 315.5,528.5C 316.167,528.5 316.833,528.5 317.5,528.5C 317.158,529.338 316.492,529.672 315.5,529.5 Z"/></g>
<g><path style="opacity:0.016" fill="#000000" d="M 314.5,529.5 C 314.833,529.5 315.167,529.5 315.5,529.5C 315.315,530.17 314.981,530.17 314.5,529.5 Z"/></g>
<g><path style="opacity:0.016" fill="#000000" d="M 313.5,530.5 C 313.833,530.5 314.167,530.5 314.5,530.5C 314.315,531.17 313.981,531.17 313.5,530.5 Z"/></g>
<g><path style="opacity:0.016" fill="#000000" d="M 312.5,531.5 C 312.833,531.5 313.167,531.5 313.5,531.5C 313.315,532.17 312.981,532.17 312.5,531.5 Z"/></g>
<g><path style="opacity:0.012" fill="#000000" d="M 311.5,532.5 C 311.833,532.5 312.167,532.5 312.5,532.5C 312.315,533.17 311.981,533.17 311.5,532.5 Z"/></g>
<g><path style="opacity:0.008" fill="#000000" d="M 310.5,533.5 C 310.833,533.5 311.167,533.5 311.5,533.5C 311.315,534.17 310.981,534.17 310.5,533.5 Z"/></g>
<g><path style="opacity:0.008" fill="#000000" d="M 308.5,535.5 C 308.5,535.167 308.5,534.833 308.5,534.5C 309.167,534.5 309.833,534.5 310.5,534.5C 310.158,535.338 309.492,535.672 308.5,535.5 Z"/></g>
<g><path style="opacity:0.016" fill="#000000" d="M 307.5,535.5 C 307.833,535.5 308.167,535.5 308.5,535.5C 308.315,536.17 307.981,536.17 307.5,535.5 Z"/></g>
<g><path style="opacity:0.016" fill="#000000" d="M 306.5,536.5 C 306.833,536.5 307.167,536.5 307.5,536.5C 307.315,537.17 306.981,537.17 306.5,536.5 Z"/></g>
<g><path style="opacity:0.012" fill="#000000" d="M 305.5,537.5 C 305.833,537.5 306.167,537.5 306.5,537.5C 306.315,538.17 305.981,538.17 305.5,537.5 Z"/></g>
<g><path style="opacity:0.016" fill="#000000" d="M 301.5,540.5 C 301.833,540.5 302.167,540.5 302.5,540.5C 302.315,541.17 301.981,541.17 301.5,540.5 Z"/></g>
<g><path style="opacity:0.016" fill="#000000" d="M 300.5,541.5 C 300.833,541.5 301.167,541.5 301.5,541.5C 301.315,542.17 300.981,542.17 300.5,541.5 Z"/></g>
<g><path style="opacity:0.012" fill="#000000" d="M 299.5,542.5 C 299.833,542.5 300.167,542.5 300.5,542.5C 300.315,543.17 299.981,543.17 299.5,542.5 Z"/></g>
<g><path style="opacity:0.008" fill="#000000" d="M 297.5,543.5 C 298.167,543.5 298.833,543.5 299.5,543.5C 299.027,544.906 298.027,545.573 296.5,545.5C 296.5,545.167 296.5,544.833 296.5,544.5C 297.167,544.5 297.5,544.167 297.5,543.5 Z"/></g>
<g><path style="opacity:0.016" fill="#000000" d="M 295.5,545.5 C 295.833,545.5 296.167,545.5 296.5,545.5C 296.315,546.17 295.981,546.17 295.5,545.5 Z"/></g>
<g><path style="opacity:0.012" fill="#000000" d="M 294.5,546.5 C 294.833,546.5 295.167,546.5 295.5,546.5C 295.315,547.17 294.981,547.17 294.5,546.5 Z"/></g>
<g><path style="opacity:0.008" fill="#000000" d="M 292.5,547.5 C 293.167,547.5 293.833,547.5 294.5,547.5C 294.027,548.906 293.027,549.573 291.5,549.5C 291.5,549.167 291.5,548.833 291.5,548.5C 292.167,548.5 292.5,548.167 292.5,547.5 Z"/></g>
<g><path style="opacity:0.016" fill="#000000" d="M 290.5,549.5 C 290.833,549.5 291.167,549.5 291.5,549.5C 291.315,550.17 290.981,550.17 290.5,549.5 Z"/></g>
<g><path style="opacity:0.012" fill="#000000" d="M 289.5,550.5 C 289.833,550.5 290.167,550.5 290.5,550.5C 290.315,551.17 289.981,551.17 289.5,550.5 Z"/></g>
<g><path style="opacity:0.006" fill="#000000" d="M 287.5,552.5 C 287.5,552.167 287.5,551.833 287.5,551.5C 288.167,551.5 288.833,551.5 289.5,551.5C 289.158,552.338 288.492,552.672 287.5,552.5 Z"/></g>
<g><path style="opacity:0.016" fill="#000000" d="M 286.5,552.5 C 286.833,552.5 287.167,552.5 287.5,552.5C 287.315,553.17 286.981,553.17 286.5,552.5 Z"/></g>
<g><path style="opacity:0.016" fill="#000000" d="M 285.5,553.5 C 285.833,553.5 286.167,553.5 286.5,553.5C 286.315,554.17 285.981,554.17 285.5,553.5 Z"/></g>
<g><path style="opacity:0.008" fill="#000000" d="M 284.5,554.5 C 284.833,554.5 285.167,554.5 285.5,554.5C 285.315,555.17 284.981,555.17 284.5,554.5 Z"/></g>
<g><path style="opacity:0.008" fill="#000000" d="M 282.5,556.5 C 282.5,556.167 282.5,555.833 282.5,555.5C 283.167,555.5 283.833,555.5 284.5,555.5C 284.158,556.338 283.492,556.672 282.5,556.5 Z"/></g>
<g><path style="opacity:0.016" fill="#000000" d="M 281.5,556.5 C 281.833,556.5 282.167,556.5 282.5,556.5C 282.315,557.17 281.981,557.17 281.5,556.5 Z"/></g>
<g><path style="opacity:0.012" fill="#000000" d="M 280.5,557.5 C 280.833,557.5 281.167,557.5 281.5,557.5C 281.315,558.17 280.981,558.17 280.5,557.5 Z"/></g>
<g><path style="opacity:0.008" fill="#000000" d="M 278.5,559.5 C 278.5,559.167 278.5,558.833 278.5,558.5C 279.167,558.5 279.833,558.5 280.5,558.5C 280.158,559.338 279.492,559.672 278.5,559.5 Z"/></g>
<g><path style="opacity:0.016" fill="#000000" d="M 277.5,559.5 C 277.833,559.5 278.167,559.5 278.5,559.5C 278.315,560.17 277.981,560.17 277.5,559.5 Z"/></g>
<g><path style="opacity:0.012" fill="#000000" d="M 276.5,560.5 C 276.833,560.5 277.167,560.5 277.5,560.5C 277.315,561.17 276.981,561.17 276.5,560.5 Z"/></g>
<g><path style="opacity:0.008" fill="#000000" d="M 274.5,562.5 C 274.5,562.167 274.5,561.833 274.5,561.5C 275.167,561.5 275.833,561.5 276.5,561.5C 276.158,562.338 275.492,562.672 274.5,562.5 Z"/></g>
<g><path style="opacity:0.016" fill="#000000" d="M 273.5,562.5 C 273.833,562.5 274.167,562.5 274.5,562.5C 274.315,563.17 273.981,563.17 273.5,562.5 Z"/></g>
<g><path style="opacity:0.012" fill="#000000" d="M 272.5,563.5 C 272.833,563.5 273.167,563.5 273.5,563.5C 273.315,564.17 272.981,564.17 272.5,563.5 Z"/></g>
<g><path style="opacity:0.008" fill="#000000" d="M 270.5,565.5 C 270.5,565.167 270.5,564.833 270.5,564.5C 271.167,564.5 271.833,564.5 272.5,564.5C 272.158,565.338 271.492,565.672 270.5,565.5 Z"/></g>
<g><path style="opacity:0.016" fill="#000000" d="M 269.5,565.5 C 269.833,565.5 270.167,565.5 270.5,565.5C 270.315,566.17 269.981,566.17 269.5,565.5 Z"/></g>
<g><path style="opacity:0.012" fill="#000000" d="M 268.5,566.5 C 268.833,566.5 269.167,566.5 269.5,566.5C 269.315,567.17 268.981,567.17 268.5,566.5 Z"/></g>
<g><path style="opacity:0.008" fill="#000000" d="M 266.5,568.5 C 266.5,568.167 266.5,567.833 266.5,567.5C 267.167,567.5 267.833,567.5 268.5,567.5C 268.158,568.338 267.492,568.672 266.5,568.5 Z"/></g>
<g><path style="opacity:0.016" fill="#000000" d="M 265.5,568.5 C 265.833,568.5 266.167,568.5 266.5,568.5C 266.315,569.17 265.981,569.17 265.5,568.5 Z"/></g>
<g><path style="opacity:0.012" fill="#000000" d="M 264.5,569.5 C 264.833,569.5 265.167,569.5 265.5,569.5C 265.315,570.17 264.981,570.17 264.5,569.5 Z"/></g>
<g><path style="opacity:0.006" fill="#000000" d="M 262.5,571.5 C 262.5,571.167 262.5,570.833 262.5,570.5C 263.167,570.5 263.833,570.5 264.5,570.5C 264.158,571.338 263.492,571.672 262.5,571.5 Z"/></g>
<g><path style="opacity:0.016" fill="#000000" d="M 261.5,571.5 C 261.833,571.5 262.167,571.5 262.5,571.5C 262.315,572.17 261.981,572.17 261.5,571.5 Z"/></g>
<g><path style="opacity:0.012" fill="#000000" d="M 260.5,572.5 C 260.833,572.5 261.167,572.5 261.5,572.5C 261.315,573.17 260.981,573.17 260.5,572.5 Z"/></g>
<g><path style="opacity:0.008" fill="#000000" d="M 258.5,574.5 C 258.5,574.167 258.5,573.833 258.5,573.5C 259.167,573.5 259.833,573.5 260.5,573.5C 260.158,574.338 259.492,574.672 258.5,574.5 Z"/></g>
<g><path style="opacity:0.008" fill="#000000" d="M 168.5,575.5 C 167.833,575.5 167.5,575.833 167.5,576.5C 165.025,576.253 165.025,575.587 167.5,574.5C 168.107,574.624 168.44,574.957 168.5,575.5 Z"/></g>
<g><path style="opacity:0.016" fill="#000000" d="M 257.5,574.5 C 257.833,574.5 258.167,574.5 258.5,574.5C 258.315,575.17 257.981,575.17 257.5,574.5 Z"/></g>
<g><path style="opacity:0.012" fill="#000000" d="M 253.5,577.5 C 253.833,577.5 254.167,577.5 254.5,577.5C 254.315,578.17 253.981,578.17 253.5,577.5 Z"/></g>
<g><path style="opacity:0.008" fill="#000000" d="M 251.5,579.5 C 251.5,579.167 251.5,578.833 251.5,578.5C 252.167,578.5 252.833,578.5 253.5,578.5C 253.158,579.338 252.492,579.672 251.5,579.5 Z"/></g>
<g><path style="opacity:0.016" fill="#000000" d="M 250.5,579.5 C 250.833,579.5 251.167,579.5 251.5,579.5C 251.315,580.17 250.981,580.17 250.5,579.5 Z"/></g>
<g><path style="opacity:0.008" fill="#000000" d="M 161.5,581.5 C 160.833,581.5 160.5,581.833 160.5,582.5C 158.025,582.253 158.025,581.587 160.5,580.5C 161.107,580.624 161.44,580.957 161.5,581.5 Z"/></g>
<g><path style="opacity:0.016" fill="#000000" d="M 247.5,581.5 C 247.833,581.5 248.167,581.5 248.5,581.5C 248.315,582.17 247.981,582.17 247.5,581.5 Z"/></g>
<g><path style="opacity:0.012" fill="#000000" d="M 246.5,582.5 C 246.833,582.5 247.167,582.5 247.5,582.5C 247.315,583.17 246.981,583.17 246.5,582.5 Z"/></g>
<g><path style="opacity:0.008" fill="#000000" d="M 244.5,584.5 C 244.5,584.167 244.5,583.833 244.5,583.5C 245.167,583.5 245.833,583.5 246.5,583.5C 246.158,584.338 245.492,584.672 244.5,584.5 Z"/></g>
<g><path style="opacity:0.012" fill="#000000" d="M 243.5,584.5 C 243.833,584.5 244.167,584.5 244.5,584.5C 244.315,585.17 243.981,585.17 243.5,584.5 Z"/></g>
<g><path style="opacity:0.007" fill="#000000" d="M 155.5,586.5 C 154.833,586.5 154.5,586.833 154.5,587.5C 152.025,587.253 152.025,586.587 154.5,585.5C 155.107,585.624 155.44,585.957 155.5,586.5 Z"/></g>
<g><path style="opacity:0.008" fill="#000000" d="M 241.5,586.5 C 241.5,586.167 241.5,585.833 241.5,585.5C 242.167,585.5 242.833,585.5 243.5,585.5C 243.158,586.338 242.492,586.672 241.5,586.5 Z"/></g>
<g><path style="opacity:0.016" fill="#000000" d="M 240.5,586.5 C 240.833,586.5 241.167,586.5 241.5,586.5C 241.315,587.17 240.981,587.17 240.5,586.5 Z"/></g>
<g><path style="opacity:0.008" fill="#000000" d="M 239.5,587.5 C 239.833,587.5 240.167,587.5 240.5,587.5C 240.315,588.17 239.981,588.17 239.5,587.5 Z"/></g>
<g><path style="opacity:0.01" fill="#000000" d="M 237.5,589.5 C 237.5,589.167 237.5,588.833 237.5,588.5C 238.167,588.5 238.833,588.5 239.5,588.5C 239.158,589.338 238.492,589.672 237.5,589.5 Z"/></g>
<g><path style="opacity:0.012" fill="#000000" d="M 236.5,589.5 C 236.833,589.5 237.167,589.5 237.5,589.5C 237.315,590.17 236.981,590.17 236.5,589.5 Z"/></g>
<g><path style="opacity:0.008" fill="#000000" d="M 234.5,591.5 C 234.5,591.167 234.5,590.833 234.5,590.5C 235.167,590.5 235.833,590.5 236.5,590.5C 236.158,591.338 235.492,591.672 234.5,591.5 Z"/></g>
<g><path style="opacity:0.012" fill="#000000" d="M 233.5,591.5 C 233.833,591.5 234.167,591.5 234.5,591.5C 234.315,592.17 233.981,592.17 233.5,591.5 Z"/></g>
<g><path style="opacity:0.008" fill="#000000" d="M 231.5,593.5 C 231.5,593.167 231.5,592.833 231.5,592.5C 232.167,592.5 232.833,592.5 233.5,592.5C 233.158,593.338 232.492,593.672 231.5,593.5 Z"/></g>
<g><path style="opacity:0.012" fill="#000000" d="M 230.5,593.5 C 230.833,593.5 231.167,593.5 231.5,593.5C 231.315,594.17 230.981,594.17 230.5,593.5 Z"/></g>
<g><path style="opacity:0.006" fill="#000000" d="M 228.5,595.5 C 228.5,595.167 228.5,594.833 228.5,594.5C 229.167,594.5 229.833,594.5 230.5,594.5C 230.158,595.338 229.492,595.672 228.5,595.5 Z"/></g>
<g><path style="opacity:0.016" fill="#000000" d="M 227.5,595.5 C 227.833,595.5 228.167,595.5 228.5,595.5C 228.315,596.17 227.981,596.17 227.5,595.5 Z"/></g>
<g><path style="opacity:0.006" fill="#000000" d="M 225.5,597.5 C 225.5,597.167 225.5,596.833 225.5,596.5C 226.167,596.5 226.833,596.5 227.5,596.5C 227.158,597.338 226.492,597.672 225.5,597.5 Z"/></g>
<g><path style="opacity:0.012" fill="#000000" d="M 224.5,597.5 C 224.833,597.5 225.167,597.5 225.5,597.5C 225.315,598.17 224.981,598.17 224.5,597.5 Z"/></g>
<g><path style="opacity:0.008" fill="#000000" d="M 222.5,599.5 C 222.5,599.167 222.5,598.833 222.5,598.5C 223.167,598.5 223.833,598.5 224.5,598.5C 224.158,599.338 223.492,599.672 222.5,599.5 Z"/></g>
<g><path style="opacity:0.016" fill="#000000" d="M 221.5,599.5 C 221.833,599.5 222.167,599.5 222.5,599.5C 222.315,600.17 221.981,600.17 221.5,599.5 Z"/></g>
<g><path style="opacity:0.008" fill="#000000" d="M 219.5,601.5 C 219.5,601.167 219.5,600.833 219.5,600.5C 220.167,600.5 220.833,600.5 221.5,600.5C 221.158,601.338 220.492,601.672 219.5,601.5 Z"/></g>
<g><path style="opacity:0.016" fill="#000000" d="M 218.5,601.5 C 218.833,601.5 219.167,601.5 219.5,601.5C 219.315,602.17 218.981,602.17 218.5,601.5 Z"/></g>
<g><path style="opacity:0.008" fill="#000000" d="M 216.5,603.5 C 216.5,603.167 216.5,602.833 216.5,602.5C 217.167,602.5 217.833,602.5 218.5,602.5C 218.158,603.338 217.492,603.672 216.5,603.5 Z"/></g>
<g><path style="opacity:0.016" fill="#000000" d="M 215.5,603.5 C 215.833,603.5 216.167,603.5 216.5,603.5C 216.315,604.17 215.981,604.17 215.5,603.5 Z"/></g>
<g><path style="opacity:0.008" fill="#000000" d="M 213.5,605.5 C 213.5,605.167 213.5,604.833 213.5,604.5C 214.167,604.5 214.833,604.5 215.5,604.5C 215.158,605.338 214.492,605.672 213.5,605.5 Z"/></g>
<g><path style="opacity:0.012" fill="#000000" d="M 212.5,605.5 C 212.833,605.5 213.167,605.5 213.5,605.5C 213.315,606.17 212.981,606.17 212.5,605.5 Z"/></g>
<g><path style="opacity:0.008" fill="#000000" d="M 210.5,607.5 C 210.5,607.167 210.5,606.833 210.5,606.5C 211.167,606.5 211.833,606.5 212.5,606.5C 212.158,607.338 211.492,607.672 210.5,607.5 Z"/></g>
<g><path style="opacity:0.012" fill="#000000" d="M 209.5,607.5 C 209.833,607.5 210.167,607.5 210.5,607.5C 210.315,608.17 209.981,608.17 209.5,607.5 Z"/></g>
<g><path style="opacity:0.008" fill="#000000" d="M 207.5,609.5 C 207.5,609.167 207.5,608.833 207.5,608.5C 208.167,608.5 208.833,608.5 209.5,608.5C 209.158,609.338 208.492,609.672 207.5,609.5 Z"/></g>
<g><path style="opacity:0.012" fill="#000000" d="M 206.5,609.5 C 206.833,609.5 207.167,609.5 207.5,609.5C 207.315,610.17 206.981,610.17 206.5,609.5 Z"/></g>
<g><path style="opacity:0.008" fill="#000000" d="M 204.5,611.5 C 204.5,611.167 204.5,610.833 204.5,610.5C 205.167,610.5 205.833,610.5 206.5,610.5C 206.158,611.338 205.492,611.672 204.5,611.5 Z"/></g>
<g><path style="opacity:0.008" fill="#000000" d="M 203.5,611.5 C 203.833,611.5 204.167,611.5 204.5,611.5C 204.315,612.17 203.981,612.17 203.5,611.5 Z"/></g>
<g><path style="opacity:0.008" fill="#000000" d="M 201.5,613.5 C 201.5,613.167 201.5,612.833 201.5,612.5C 202.167,612.5 202.833,612.5 203.5,612.5C 203.158,613.338 202.492,613.672 201.5,613.5 Z"/></g>
<g><path style="opacity:0.006" fill="#000000" d="M 199.5,614.5 C 199.5,614.167 199.5,613.833 199.5,613.5C 200.167,613.5 200.833,613.5 201.5,613.5C 201.158,614.338 200.492,614.672 199.5,614.5 Z"/></g>
<g><path style="opacity:0.012" fill="#000000" d="M 198.5,614.5 C 198.833,614.5 199.167,614.5 199.5,614.5C 199.315,615.17 198.981,615.17 198.5,614.5 Z"/></g>
<g><path style="opacity:0.01" fill="#000000" d="M 196.5,616.5 C 196.5,616.167 196.5,615.833 196.5,615.5C 197.167,615.5 197.833,615.5 198.5,615.5C 198.158,616.338 197.492,616.672 196.5,616.5 Z"/></g>
<g><path style="opacity:0.012" fill="#000000" d="M 195.5,616.5 C 195.833,616.5 196.167,616.5 196.5,616.5C 196.315,617.17 195.981,617.17 195.5,616.5 Z"/></g>
<g><path style="opacity:0.008" fill="#000000" d="M 193.5,618.5 C 193.5,618.167 193.5,617.833 193.5,617.5C 194.167,617.5 194.833,617.5 195.5,617.5C 195.158,618.338 194.492,618.672 193.5,618.5 Z"/></g>
<g><path style="opacity:0.012" fill="#000000" d="M 192.5,618.5 C 192.833,618.5 193.167,618.5 193.5,618.5C 193.315,619.17 192.981,619.17 192.5,618.5 Z"/></g>
<g><path style="opacity:0.01" fill="#000000" d="M 190.5,620.5 C 190.5,620.167 190.5,619.833 190.5,619.5C 191.167,619.5 191.833,619.5 192.5,619.5C 192.158,620.338 191.492,620.672 190.5,620.5 Z"/></g>
<g><path style="opacity:0.008" fill="#000000" d="M 188.5,621.5 C 188.5,621.167 188.5,620.833 188.5,620.5C 189.167,620.5 189.833,620.5 190.5,620.5C 190.158,621.338 189.492,621.672 188.5,621.5 Z"/></g>
<g><path style="opacity:0.012" fill="#000000" d="M 187.5,621.5 C 187.833,621.5 188.167,621.5 188.5,621.5C 188.315,622.17 187.981,622.17 187.5,621.5 Z"/></g>
<g><path style="opacity:0.008" fill="#000000" d="M 185.5,623.5 C 185.5,623.167 185.5,622.833 185.5,622.5C 186.167,622.5 186.833,622.5 187.5,622.5C 187.158,623.338 186.492,623.672 185.5,623.5 Z"/></g>
<g><path style="opacity:0.012" fill="#000000" d="M 184.5,623.5 C 184.833,623.5 185.167,623.5 185.5,623.5C 185.315,624.17 184.981,624.17 184.5,623.5 Z"/></g>
<g><path style="opacity:0.01" fill="#000000" d="M 182.5,625.5 C 182.5,625.167 182.5,624.833 182.5,624.5C 183.167,624.5 183.833,624.5 184.5,624.5C 184.158,625.338 183.492,625.672 182.5,625.5 Z"/></g>
<g><path style="opacity:0.008" fill="#000000" d="M 180.5,626.5 C 180.5,626.167 180.5,625.833 180.5,625.5C 181.167,625.5 181.833,625.5 182.5,625.5C 182.158,626.338 181.492,626.672 180.5,626.5 Z"/></g>
<g><path style="opacity:0.012" fill="#000000" d="M 179.5,626.5 C 179.833,626.5 180.167,626.5 180.5,626.5C 180.315,627.17 179.981,627.17 179.5,626.5 Z"/></g>
<g><path style="opacity:0.008" fill="#000000" d="M 177.5,628.5 C 177.5,628.167 177.5,627.833 177.5,627.5C 178.167,627.5 178.833,627.5 179.5,627.5C 179.158,628.338 178.492,628.672 177.5,628.5 Z"/></g>
<g><path style="opacity:0.008" fill="#000000" d="M 175.5,629.5 C 175.5,629.167 175.5,628.833 175.5,628.5C 176.167,628.5 176.833,628.5 177.5,628.5C 177.158,629.338 176.492,629.672 175.5,629.5 Z"/></g>
<g><path style="opacity:0.012" fill="#000000" d="M 174.5,629.5 C 174.833,629.5 175.167,629.5 175.5,629.5C 175.315,630.17 174.981,630.17 174.5,629.5 Z"/></g>
<g><path style="opacity:0.008" fill="#000000" d="M 172.5,631.5 C 172.5,631.167 172.5,630.833 172.5,630.5C 173.167,630.5 173.833,630.5 174.5,630.5C 174.158,631.338 173.492,631.672 172.5,631.5 Z"/></g>
<g><path style="opacity:0.008" fill="#000000" d="M 171.5,631.5 C 171.833,631.5 172.167,631.5 172.5,631.5C 172.315,632.17 171.981,632.17 171.5,631.5 Z"/></g>
<g><path style="opacity:0.012" fill="#000000" d="M 169.5,632.5 C 170.833,633.167 170.833,633.167 169.5,632.5 Z"/></g>
<g><path style="opacity:0.008" fill="#000000" d="M 167.5,634.5 C 167.5,634.167 167.5,633.833 167.5,633.5C 168.167,633.5 168.833,633.5 169.5,633.5C 169.158,634.338 168.492,634.672 167.5,634.5 Z"/></g>
<g><path style="opacity:0.006" fill="#000000" d="M 165.5,635.5 C 165.5,635.167 165.5,634.833 165.5,634.5C 166.167,634.5 166.833,634.5 167.5,634.5C 167.158,635.338 166.492,635.672 165.5,635.5 Z"/></g>
<g><path style="opacity:0.012" fill="#000000" d="M 164.5,635.5 C 164.833,635.5 165.167,635.5 165.5,635.5C 165.315,636.17 164.981,636.17 164.5,635.5 Z"/></g>
<g><path style="opacity:0.008" fill="#000000" d="M 162.5,637.5 C 162.5,637.167 162.5,636.833 162.5,636.5C 163.167,636.5 163.833,636.5 164.5,636.5C 164.158,637.338 163.492,637.672 162.5,637.5 Z"/></g>
<g><path style="opacity:0.006" fill="#000000" d="M 160.5,638.5 C 160.5,638.167 160.5,637.833 160.5,637.5C 161.167,637.5 161.833,637.5 162.5,637.5C 162.158,638.338 161.492,638.672 160.5,638.5 Z"/></g>
<g><path style="opacity:0.012" fill="#000000" d="M 159.5,638.5 C 159.833,638.5 160.167,638.5 160.5,638.5C 160.315,639.17 159.981,639.17 159.5,638.5 Z"/></g>
<g><path style="opacity:0.008" fill="#000000" d="M 157.5,640.5 C 157.5,640.167 157.5,639.833 157.5,639.5C 158.167,639.5 158.833,639.5 159.5,639.5C 159.158,640.338 158.492,640.672 157.5,640.5 Z"/></g>
<g><path style="opacity:0.008" fill="#000000" d="M 155.5,641.5 C 155.5,641.167 155.5,640.833 155.5,640.5C 156.167,640.5 156.833,640.5 157.5,640.5C 157.158,641.338 156.492,641.672 155.5,641.5 Z"/></g>
<g><path style="opacity:0.012" fill="#000000" d="M 154.5,641.5 C 154.833,641.5 155.167,641.5 155.5,641.5C 155.315,642.17 154.981,642.17 154.5,641.5 Z"/></g>
<g><path style="opacity:0.01" fill="#000000" d="M 152.5,643.5 C 152.5,643.167 152.5,642.833 152.5,642.5C 153.167,642.5 153.833,642.5 154.5,642.5C 154.158,643.338 153.492,643.672 152.5,643.5 Z"/></g>
<g><path style="opacity:0.008" fill="#000000" d="M 150.5,644.5 C 150.5,644.167 150.5,643.833 150.5,643.5C 151.167,643.5 151.833,643.5 152.5,643.5C 152.158,644.338 151.492,644.672 150.5,644.5 Z"/></g>
<g><path style="opacity:0.012" fill="#000000" d="M 149.5,644.5 C 149.833,644.5 150.167,644.5 150.5,644.5C 150.315,645.17 149.981,645.17 149.5,644.5 Z"/></g>
<g><path style="opacity:0.01" fill="#000000" d="M 147.5,646.5 C 147.5,646.167 147.5,645.833 147.5,645.5C 148.167,645.5 148.833,645.5 149.5,645.5C 149.158,646.338 148.492,646.672 147.5,646.5 Z"/></g>
<g><path style="opacity:0.01" fill="#000000" d="M 145.5,647.5 C 145.5,647.167 145.5,646.833 145.5,646.5C 146.167,646.5 146.833,646.5 147.5,646.5C 147.158,647.338 146.492,647.672 145.5,647.5 Z"/></g>
<g><path style="opacity:0.012" fill="#000000" d="M 144.5,647.5 C 144.833,647.5 145.167,647.5 145.5,647.5C 145.315,648.17 144.981,648.17 144.5,647.5 Z"/></g>
<g><path style="opacity:0.016" fill="#000000" d="M 142.5,648.5 C 143.833,649.167 143.833,649.167 142.5,648.5 Z"/></g>
<g><path style="opacity:0.008" fill="#000000" d="M 140.5,650.5 C 140.5,650.167 140.5,649.833 140.5,649.5C 141.167,649.5 141.833,649.5 142.5,649.5C 142.158,650.338 141.492,650.672 140.5,650.5 Z"/></g>
<g><path style="opacity:0.012" fill="#000000" d="M 139.5,650.5 C 139.833,650.5 140.167,650.5 140.5,650.5C 140.315,651.17 139.981,651.17 139.5,650.5 Z"/></g>
<g><path style="opacity:0.01" fill="#000000" d="M 137.5,652.5 C 137.5,652.167 137.5,651.833 137.5,651.5C 138.167,651.5 138.833,651.5 139.5,651.5C 139.158,652.338 138.492,652.672 137.5,652.5 Z"/></g>
<g><path style="opacity:0.008" fill="#000000" d="M 135.5,653.5 C 135.5,653.167 135.5,652.833 135.5,652.5C 136.167,652.5 136.833,652.5 137.5,652.5C 137.158,653.338 136.492,653.672 135.5,653.5 Z"/></g>
<g><path style="opacity:0.012" fill="#000000" d="M 134.5,653.5 C 134.833,653.5 135.167,653.5 135.5,653.5C 135.315,654.17 134.981,654.17 134.5,653.5 Z"/></g>
<g><path style="opacity:0.01" fill="#000000" d="M 132.5,655.5 C 132.5,655.167 132.5,654.833 132.5,654.5C 133.167,654.5 133.833,654.5 134.5,654.5C 134.158,655.338 133.492,655.672 132.5,655.5 Z"/></g>
<g><path style="opacity:0.008" fill="#000000" d="M 130.5,656.5 C 130.5,656.167 130.5,655.833 130.5,655.5C 131.167,655.5 131.833,655.5 132.5,655.5C 132.158,656.338 131.492,656.672 130.5,656.5 Z"/></g>
<g><path style="opacity:0.008" fill="#000000" d="M 128.5,657.5 C 128.5,657.167 128.5,656.833 128.5,656.5C 129.167,656.5 129.833,656.5 130.5,656.5C 130.158,657.338 129.492,657.672 128.5,657.5 Z"/></g>
<g><path style="opacity:0.016" fill="#000000" d="M 127.5,657.5 C 127.833,657.5 128.167,657.5 128.5,657.5C 128.315,658.17 127.981,658.17 127.5,657.5 Z"/></g>
<g><path style="opacity:0.01" fill="#000000" d="M 125.5,659.5 C 125.5,659.167 125.5,658.833 125.5,658.5C 126.167,658.5 126.833,658.5 127.5,658.5C 127.158,659.338 126.492,659.672 125.5,659.5 Z"/></g>
<g><path style="opacity:0.006" fill="#000000" d="M 123.5,660.5 C 123.5,660.167 123.5,659.833 123.5,659.5C 124.167,659.5 124.833,659.5 125.5,659.5C 125.158,660.338 124.492,660.672 123.5,660.5 Z"/></g>
<g><path style="opacity:0.016" fill="#000000" d="M 122.5,660.5 C 122.833,660.5 123.167,660.5 123.5,660.5C 123.315,661.17 122.981,661.17 122.5,660.5 Z"/></g>
<g><path style="opacity:0.008" fill="#000000" d="M 120.5,662.5 C 120.5,662.167 120.5,661.833 120.5,661.5C 121.167,661.5 121.833,661.5 122.5,661.5C 122.158,662.338 121.492,662.672 120.5,662.5 Z"/></g>
<g><path style="opacity:0.006" fill="#000000" d="M 118.5,663.5 C 118.5,663.167 118.5,662.833 118.5,662.5C 119.167,662.5 119.833,662.5 120.5,662.5C 120.158,663.338 119.492,663.672 118.5,663.5 Z"/></g>
<g><path style="opacity:0.016" fill="#000000" d="M 117.5,663.5 C 117.833,663.5 118.167,663.5 118.5,663.5C 118.315,664.17 117.981,664.17 117.5,663.5 Z"/></g>
<g><path style="opacity:0.01" fill="#000000" d="M 115.5,665.5 C 115.5,665.167 115.5,664.833 115.5,664.5C 116.167,664.5 116.833,664.5 117.5,664.5C 117.158,665.338 116.492,665.672 115.5,665.5 Z"/></g>
<g><path style="opacity:0.006" fill="#000000" d="M 113.5,666.5 C 113.5,666.167 113.5,665.833 113.5,665.5C 114.167,665.5 114.833,665.5 115.5,665.5C 115.158,666.338 114.492,666.672 113.5,666.5 Z"/></g>
<g><path style="opacity:0.012" fill="#000000" d="M 112.5,666.5 C 112.833,666.5 113.167,666.5 113.5,666.5C 113.315,667.17 112.981,667.17 112.5,666.5 Z"/></g>
<g><path style="opacity:0.008" fill="#000000" d="M 110.5,668.5 C 110.5,668.167 110.5,667.833 110.5,667.5C 111.167,667.5 111.833,667.5 112.5,667.5C 112.158,668.338 111.492,668.672 110.5,668.5 Z"/></g>
<g><path style="opacity:0.008" fill="#000000" d="M 108.5,669.5 C 108.5,669.167 108.5,668.833 108.5,668.5C 109.167,668.5 109.833,668.5 110.5,668.5C 110.158,669.338 109.492,669.672 108.5,669.5 Z"/></g>
<g><path style="opacity:0.012" fill="#000000" d="M 107.5,669.5 C 107.833,669.5 108.167,669.5 108.5,669.5C 108.315,670.17 107.981,670.17 107.5,669.5 Z"/></g>
<g><path style="opacity:0.01" fill="#000000" d="M 105.5,671.5 C 105.5,671.167 105.5,670.833 105.5,670.5C 106.167,670.5 106.833,670.5 107.5,670.5C 107.158,671.338 106.492,671.672 105.5,671.5 Z"/></g>
<g><path style="opacity:0.008" fill="#000000" d="M 103.5,672.5 C 103.5,672.167 103.5,671.833 103.5,671.5C 104.167,671.5 104.833,671.5 105.5,671.5C 105.158,672.338 104.492,672.672 103.5,672.5 Z"/></g>
<g><path style="opacity:0.012" fill="#000000" d="M 102.5,672.5 C 102.833,672.5 103.167,672.5 103.5,672.5C 103.315,673.17 102.981,673.17 102.5,672.5 Z"/></g>
<g><path style="opacity:0.01" fill="#000000" d="M 100.5,674.5 C 100.5,674.167 100.5,673.833 100.5,673.5C 101.167,673.5 101.833,673.5 102.5,673.5C 102.158,674.338 101.492,674.672 100.5,674.5 Z"/></g>
<g><path style="opacity:0.01" fill="#000000" d="M 98.5,675.5 C 98.5,675.167 98.5,674.833 98.5,674.5C 99.1667,674.5 99.8333,674.5 100.5,674.5C 100.158,675.338 99.4916,675.672 98.5,675.5 Z"/></g>
<g><path style="opacity:0.012" fill="#000000" d="M 97.5,675.5 C 97.8333,675.5 98.1667,675.5 98.5,675.5C 98.3147,676.17 97.9813,676.17 97.5,675.5 Z"/></g>
<g><path style="opacity:0.008" fill="#000000" d="M 95.5,677.5 C 95.5,677.167 95.5,676.833 95.5,676.5C 96.1667,676.5 96.8333,676.5 97.5,676.5C 97.1583,677.338 96.4916,677.672 95.5,677.5 Z"/></g>
<g><path style="opacity:0.008" fill="#000000" d="M 93.5,678.5 C 93.5,678.167 93.5,677.833 93.5,677.5C 94.1667,677.5 94.8333,677.5 95.5,677.5C 95.1583,678.338 94.4916,678.672 93.5,678.5 Z"/></g>
<g><path style="opacity:0.008" fill="#000000" d="M 91.5,679.5 C 91.5,679.167 91.5,678.833 91.5,678.5C 92.1667,678.5 92.8333,678.5 93.5,678.5C 93.1583,679.338 92.4916,679.672 91.5,679.5 Z"/></g>
<g><path style="opacity:0.012" fill="#000000" d="M 90.5,679.5 C 90.8333,679.5 91.1667,679.5 91.5,679.5C 91.3147,680.17 90.9813,680.17 90.5,679.5 Z"/></g>
<g><path style="opacity:0.008" fill="#000000" d="M 88.5,681.5 C 88.5,681.167 88.5,680.833 88.5,680.5C 89.1667,680.5 89.8333,680.5 90.5,680.5C 90.1583,681.338 89.4916,681.672 88.5,681.5 Z"/></g>
<g><path style="opacity:0.008" fill="#000000" d="M 86.5,682.5 C 86.5,682.167 86.5,681.833 86.5,681.5C 87.1667,681.5 87.8333,681.5 88.5,681.5C 88.1583,682.338 87.4916,682.672 86.5,682.5 Z"/></g>
<g><path style="opacity:0.012" fill="#000000" d="M 85.5,682.5 C 85.8333,682.5 86.1667,682.5 86.5,682.5C 86.3147,683.17 85.9813,683.17 85.5,682.5 Z"/></g>
<g><path style="opacity:0.008" fill="#000000" d="M 83.5,684.5 C 83.5,684.167 83.5,683.833 83.5,683.5C 84.1667,683.5 84.8333,683.5 85.5,683.5C 85.1583,684.338 84.4916,684.672 83.5,684.5 Z"/></g>
<g><path style="opacity:0.008" fill="#000000" d="M 81.5,685.5 C 81.5,685.167 81.5,684.833 81.5,684.5C 82.1667,684.5 82.8333,684.5 83.5,684.5C 83.1583,685.338 82.4916,685.672 81.5,685.5 Z"/></g>
<g><path style="opacity:0.006" fill="#000000" d="M 79.5,686.5 C 79.5,686.167 79.5,685.833 79.5,685.5C 80.1667,685.5 80.8333,685.5 81.5,685.5C 81.1583,686.338 80.4916,686.672 79.5,686.5 Z"/></g>
<g><path style="opacity:0.012" fill="#000000" d="M 78.5,686.5 C 78.8333,686.5 79.1667,686.5 79.5,686.5C 79.3147,687.17 78.9813,687.17 78.5,686.5 Z"/></g>
<g><path style="opacity:0.01" fill="#000000" d="M 76.5,688.5 C 76.5,688.167 76.5,687.833 76.5,687.5C 77.1667,687.5 77.8333,687.5 78.5,687.5C 78.1583,688.338 77.4916,688.672 76.5,688.5 Z"/></g>
<g><path style="opacity:0.008" fill="#000000" d="M 74.5,689.5 C 74.5,689.167 74.5,688.833 74.5,688.5C 75.1667,688.5 75.8333,688.5 76.5,688.5C 76.1583,689.338 75.4916,689.672 74.5,689.5 Z"/></g>
<g><path style="opacity:0.008" fill="#000000" d="M 72.5,690.5 C 72.5,690.167 72.5,689.833 72.5,689.5C 73.1667,689.5 73.8333,689.5 74.5,689.5C 74.1583,690.338 73.4916,690.672 72.5,690.5 Z"/></g>
<g><path style="opacity:0.012" fill="#000000" d="M 71.5,690.5 C 71.8333,690.5 72.1667,690.5 72.5,690.5C 72.3147,691.17 71.9813,691.17 71.5,690.5 Z"/></g>
<g><path style="opacity:0.01" fill="#000000" d="M 69.5,692.5 C 69.5,692.167 69.5,691.833 69.5,691.5C 70.1667,691.5 70.8333,691.5 71.5,691.5C 71.1583,692.338 70.4916,692.672 69.5,692.5 Z"/></g>
<g><path style="opacity:0.008" fill="#000000" d="M 67.5,693.5 C 67.5,693.167 67.5,692.833 67.5,692.5C 68.1667,692.5 68.8333,692.5 69.5,692.5C 69.1583,693.338 68.4916,693.672 67.5,693.5 Z"/></g>
<g><path style="opacity:0.008" fill="#000000" d="M 65.5,694.5 C 65.5,694.167 65.5,693.833 65.5,693.5C 66.1667,693.5 66.8333,693.5 67.5,693.5C 67.1583,694.338 66.4916,694.672 65.5,694.5 Z"/></g>
<g><path style="opacity:0.008" fill="#000000" d="M 63.5,695.5 C 63.5,695.167 63.5,694.833 63.5,694.5C 64.1667,694.5 64.8333,694.5 65.5,694.5C 65.1583,695.338 64.4916,695.672 63.5,695.5 Z"/></g>
<g><path style="opacity:0.012" fill="#000000" d="M 62.5,695.5 C 62.8333,695.5 63.1667,695.5 63.5,695.5C 63.3147,696.17 62.9813,696.17 62.5,695.5 Z"/></g>
<g><path style="opacity:0.01" fill="#000000" d="M 60.5,697.5 C 60.5,697.167 60.5,696.833 60.5,696.5C 61.1667,696.5 61.8333,696.5 62.5,696.5C 62.1583,697.338 61.4916,697.672 60.5,697.5 Z"/></g>
<g><path style="opacity:0.01" fill="#000000" d="M 58.5,698.5 C 58.5,698.167 58.5,697.833 58.5,697.5C 59.1667,697.5 59.8333,697.5 60.5,697.5C 60.1583,698.338 59.4916,698.672 58.5,698.5 Z"/></g>
<g><path style="opacity:0.01" fill="#000000" d="M 56.5,699.5 C 56.5,699.167 56.5,698.833 56.5,698.5C 57.1667,698.5 57.8333,698.5 58.5,698.5C 58.1583,699.338 57.4916,699.672 56.5,699.5 Z"/></g>
<g><path style="opacity:0.008" fill="#000000" d="M 54.5,700.5 C 54.5,700.167 54.5,699.833 54.5,699.5C 55.1667,699.5 55.8333,699.5 56.5,699.5C 56.1583,700.338 55.4916,700.672 54.5,700.5 Z"/></g>
<g><path style="opacity:0.012" fill="#000000" d="M 53.5,700.5 C 53.8333,700.5 54.1667,700.5 54.5,700.5C 54.3147,701.17 53.9813,701.17 53.5,700.5 Z"/></g>
<g><path style="opacity:0.012" fill="#000000" d="M 51.5,701.5 C 52.8333,702.167 52.8333,702.167 51.5,701.5 Z"/></g>
<g><path style="opacity:0.01" fill="#000000" d="M 49.5,703.5 C 49.5,703.167 49.5,702.833 49.5,702.5C 50.1667,702.5 50.8333,702.5 51.5,702.5C 51.1583,703.338 50.4916,703.672 49.5,703.5 Z"/></g>
<g><path style="opacity:0.01" fill="#000000" d="M 47.5,704.5 C 47.5,704.167 47.5,703.833 47.5,703.5C 48.1667,703.5 48.8333,703.5 49.5,703.5C 49.1583,704.338 48.4916,704.672 47.5,704.5 Z"/></g>
<g><path style="opacity:0.008" fill="#000000" d="M 45.5,705.5 C 45.5,705.167 45.5,704.833 45.5,704.5C 46.1667,704.5 46.8333,704.5 47.5,704.5C 47.1583,705.338 46.4916,705.672 45.5,705.5 Z"/></g>
<g><path style="opacity:0.008" fill="#000000" d="M 43.5,706.5 C 43.5,706.167 43.5,705.833 43.5,705.5C 44.1667,705.5 44.8333,705.5 45.5,705.5C 45.1583,706.338 44.4916,706.672 43.5,706.5 Z"/></g>
<g><path style="opacity:0.01" fill="#000000" d="M 41.5,707.5 C 41.5,707.167 41.5,706.833 41.5,706.5C 42.1667,706.5 42.8333,706.5 43.5,706.5C 43.1583,707.338 42.4916,707.672 41.5,707.5 Z"/></g>
<g><path style="opacity:0.01" fill="#000000" d="M 39.5,708.5 C 39.5,708.167 39.5,707.833 39.5,707.5C 40.1667,707.5 40.8333,707.5 41.5,707.5C 41.1583,708.338 40.4916,708.672 39.5,708.5 Z"/></g>
<g><path style="opacity:0.01" fill="#000000" d="M 37.5,709.5 C 37.5,709.167 37.5,708.833 37.5,708.5C 38.1667,708.5 38.8333,708.5 39.5,708.5C 39.1583,709.338 38.4916,709.672 37.5,709.5 Z"/></g>
<g><path style="opacity:0.01" fill="#000000" d="M 35.5,710.5 C 35.5,710.167 35.5,709.833 35.5,709.5C 36.1667,709.5 36.8333,709.5 37.5,709.5C 37.1583,710.338 36.4916,710.672 35.5,710.5 Z"/></g>
<g><path style="opacity:0.01" fill="#000000" d="M 33.5,711.5 C 33.5,711.167 33.5,710.833 33.5,710.5C 34.1667,710.5 34.8333,710.5 35.5,710.5C 35.1583,711.338 34.4916,711.672 33.5,711.5 Z"/></g>
<g><path style="opacity:0.008" fill="#000000" d="M 31.5,712.5 C 31.5,712.167 31.5,711.833 31.5,711.5C 32.1667,711.5 32.8333,711.5 33.5,711.5C 33.1583,712.338 32.4916,712.672 31.5,712.5 Z"/></g>
<g><path style="opacity:0.008" fill="#000000" d="M 29.5,713.5 C 29.5,713.167 29.5,712.833 29.5,712.5C 30.1667,712.5 30.8333,712.5 31.5,712.5C 31.1583,713.338 30.4916,713.672 29.5,713.5 Z"/></g>
<g><path style="opacity:0.008" fill="#000000" d="M 27.5,713.5 C 28.1667,713.5 28.8333,713.5 29.5,713.5C 28.8333,714.833 28.1667,714.833 27.5,713.5 Z"/></g>
<g><path style="opacity:0.01" fill="#000000" d="M 24.5,715.5 C 24.5,715.167 24.5,714.833 24.5,714.5C 27.1667,714.833 27.1667,715.167 24.5,715.5 Z"/></g>
<g><path style="opacity:0.01" fill="#000000" d="M 22.5,716.5 C 22.5,716.167 22.5,715.833 22.5,715.5C 23.1667,715.5 23.8333,715.5 24.5,715.5C 24.1583,716.338 23.4916,716.672 22.5,716.5 Z"/></g>
<g><path style="opacity:0.008" fill="#000000" d="M 19.5,717.5 C 19.5,717.167 19.5,716.833 19.5,716.5C 20.5,716.5 21.5,716.5 22.5,716.5C 21.791,717.404 20.791,717.737 19.5,717.5 Z"/></g>
<g><path style="opacity:0.01" fill="#000000" d="M 17.5,718.5 C 17.5,718.167 17.5,717.833 17.5,717.5C 18.1667,717.5 18.8333,717.5 19.5,717.5C 19.1583,718.338 18.4916,718.672 17.5,718.5 Z"/></g>
<g><path style="opacity:0.009" fill="#000000" d="M 14.5,719.5 C 14.5,719.167 14.5,718.833 14.5,718.5C 15.5,718.5 16.5,718.5 17.5,718.5C 17.5,718.833 17.5,719.167 17.5,719.5C 16.5,719.5 15.5,719.5 14.5,719.5 Z"/></g>
</svg>
